M48
;DRILL file {KiCad (5.0.1-3-g963ef8bb5)} date Saturday, August 31, 2019 at 01:17:19 AM
;FORMAT={-:-/ absolute / metric / decimal}
FMAT,2
METRIC,TZ
T1C0.400
T2C1.000
%
G90
G05
M71
T1
X111.Y-103.5
X111.Y-105.5
X111.Y-107.5
X112.5Y-136.
X112.5Y-138.
X113.Y-103.5
X113.Y-105.5
X113.Y-107.5
X114.5Y-136.
X114.5Y-138.
X116.5Y-136.
X116.5Y-138.
X128.5Y-103.5
X128.5Y-105.5
X128.5Y-107.5
X130.5Y-103.5
X130.5Y-105.5
X130.5Y-107.5
X146.Y-103.5
X146.Y-105.5
X146.Y-107.5
X146.5Y-126.
X146.5Y-129.
X146.5Y-132.
X146.5Y-135.
X146.5Y-138.
X148.Y-103.5
X148.Y-105.5
X148.Y-107.5
X149.5Y-126.
X149.5Y-129.
X149.5Y-132.
X149.5Y-135.
X149.5Y-138.
X152.5Y-132.
X152.5Y-135.
X163.5Y-103.5
X163.5Y-105.5
X163.5Y-107.5
X163.5Y-146.
X164.5Y-131.
X165.5Y-103.5
X165.5Y-105.5
X165.5Y-107.5
X166.5Y-131.
X180.Y-102.
X180.Y-105.
X180.Y-108.
X180.Y-120.
X180.Y-134.
X180.Y-137.
X180.Y-140.
X180.Y-143.
X180.Y-146.
X183.Y-120.
X183.Y-134.
X183.Y-137.
X183.Y-140.
X184.5Y-125.
X184.5Y-127.
X184.5Y-129.
X186.Y-120.
X186.Y-134.
X186.Y-137.
X186.Y-140.
T2
X166.5Y-126.
X166.5Y-128.54
X173.5Y-142.5
X173.5Y-145.5
X184.5Y-112.46
X184.5Y-115.
X105.Y-124.5
X105.Y-127.5
X108.Y-124.5
X108.Y-127.5
X166.5Y-143.5
X166.5Y-146.04
T0
M30
