G04 #@! TF.GenerationSoftware,KiCad,Pcbnew,(5.0.1-3-g963ef8bb5)*
G04 #@! TF.CreationDate,2019-08-31T01:17:06-07:00*
G04 #@! TF.ProjectId,gppr,677070722E6B696361645F7063620000,rev?*
G04 #@! TF.SameCoordinates,Original*
G04 #@! TF.FileFunction,Copper,L2,Bot,Mixed*
G04 #@! TF.FilePolarity,Positive*
%FSLAX46Y46*%
G04 Gerber Fmt 4.6, Leading zero omitted, Abs format (unit mm)*
G04 Created by KiCad (PCBNEW (5.0.1-3-g963ef8bb5)) date Saturday, August 31, 2019 at 01:17:06 AM*
%MOMM*%
%LPD*%
G01*
G04 APERTURE LIST*
G04 #@! TA.AperFunction,Conductor*
%ADD10C,0.100000*%
G04 #@! TD*
G04 #@! TA.AperFunction,ComponentPad*
%ADD11C,1.500000*%
G04 #@! TD*
G04 #@! TA.AperFunction,ComponentPad*
%ADD12R,1.700000X1.700000*%
G04 #@! TD*
G04 #@! TA.AperFunction,ComponentPad*
%ADD13O,1.700000X1.700000*%
G04 #@! TD*
G04 #@! TA.AperFunction,ViaPad*
%ADD14C,1.000000*%
G04 #@! TD*
G04 #@! TA.AperFunction,Conductor*
%ADD15C,0.254000*%
G04 #@! TD*
G04 APERTURE END LIST*
D10*
G04 #@! TO.N,Net-(D3-Pad2)*
G04 #@! TO.C,J1*
G36*
X108524504Y-126751204D02*
X108548773Y-126754804D01*
X108572571Y-126760765D01*
X108595671Y-126769030D01*
X108617849Y-126779520D01*
X108638893Y-126792133D01*
X108658598Y-126806747D01*
X108676777Y-126823223D01*
X108693253Y-126841402D01*
X108707867Y-126861107D01*
X108720480Y-126882151D01*
X108730970Y-126904329D01*
X108739235Y-126927429D01*
X108745196Y-126951227D01*
X108748796Y-126975496D01*
X108750000Y-127000000D01*
X108750000Y-128000000D01*
X108748796Y-128024504D01*
X108745196Y-128048773D01*
X108739235Y-128072571D01*
X108730970Y-128095671D01*
X108720480Y-128117849D01*
X108707867Y-128138893D01*
X108693253Y-128158598D01*
X108676777Y-128176777D01*
X108658598Y-128193253D01*
X108638893Y-128207867D01*
X108617849Y-128220480D01*
X108595671Y-128230970D01*
X108572571Y-128239235D01*
X108548773Y-128245196D01*
X108524504Y-128248796D01*
X108500000Y-128250000D01*
X107500000Y-128250000D01*
X107475496Y-128248796D01*
X107451227Y-128245196D01*
X107427429Y-128239235D01*
X107404329Y-128230970D01*
X107382151Y-128220480D01*
X107361107Y-128207867D01*
X107341402Y-128193253D01*
X107323223Y-128176777D01*
X107306747Y-128158598D01*
X107292133Y-128138893D01*
X107279520Y-128117849D01*
X107269030Y-128095671D01*
X107260765Y-128072571D01*
X107254804Y-128048773D01*
X107251204Y-128024504D01*
X107250000Y-128000000D01*
X107250000Y-127000000D01*
X107251204Y-126975496D01*
X107254804Y-126951227D01*
X107260765Y-126927429D01*
X107269030Y-126904329D01*
X107279520Y-126882151D01*
X107292133Y-126861107D01*
X107306747Y-126841402D01*
X107323223Y-126823223D01*
X107341402Y-126806747D01*
X107361107Y-126792133D01*
X107382151Y-126779520D01*
X107404329Y-126769030D01*
X107427429Y-126760765D01*
X107451227Y-126754804D01*
X107475496Y-126751204D01*
X107500000Y-126750000D01*
X108500000Y-126750000D01*
X108524504Y-126751204D01*
X108524504Y-126751204D01*
G37*
D11*
G04 #@! TD*
G04 #@! TO.P,J1,1*
G04 #@! TO.N,Net-(D3-Pad2)*
X108000000Y-127500000D03*
G04 #@! TO.P,J1,2*
G04 #@! TO.N,Net-(D1-Pad2)*
X105000000Y-127500000D03*
G04 #@! TO.P,J1,3*
G04 #@! TO.N,Net-(D3-Pad2)*
X108000000Y-124500000D03*
G04 #@! TO.P,J1,4*
G04 #@! TO.N,Net-(D1-Pad2)*
X105000000Y-124500000D03*
G04 #@! TD*
D10*
G04 #@! TO.N,Net-(C4-Pad1)*
G04 #@! TO.C,J2*
G36*
X174024504Y-141751204D02*
X174048773Y-141754804D01*
X174072571Y-141760765D01*
X174095671Y-141769030D01*
X174117849Y-141779520D01*
X174138893Y-141792133D01*
X174158598Y-141806747D01*
X174176777Y-141823223D01*
X174193253Y-141841402D01*
X174207867Y-141861107D01*
X174220480Y-141882151D01*
X174230970Y-141904329D01*
X174239235Y-141927429D01*
X174245196Y-141951227D01*
X174248796Y-141975496D01*
X174250000Y-142000000D01*
X174250000Y-143000000D01*
X174248796Y-143024504D01*
X174245196Y-143048773D01*
X174239235Y-143072571D01*
X174230970Y-143095671D01*
X174220480Y-143117849D01*
X174207867Y-143138893D01*
X174193253Y-143158598D01*
X174176777Y-143176777D01*
X174158598Y-143193253D01*
X174138893Y-143207867D01*
X174117849Y-143220480D01*
X174095671Y-143230970D01*
X174072571Y-143239235D01*
X174048773Y-143245196D01*
X174024504Y-143248796D01*
X174000000Y-143250000D01*
X173000000Y-143250000D01*
X172975496Y-143248796D01*
X172951227Y-143245196D01*
X172927429Y-143239235D01*
X172904329Y-143230970D01*
X172882151Y-143220480D01*
X172861107Y-143207867D01*
X172841402Y-143193253D01*
X172823223Y-143176777D01*
X172806747Y-143158598D01*
X172792133Y-143138893D01*
X172779520Y-143117849D01*
X172769030Y-143095671D01*
X172760765Y-143072571D01*
X172754804Y-143048773D01*
X172751204Y-143024504D01*
X172750000Y-143000000D01*
X172750000Y-142000000D01*
X172751204Y-141975496D01*
X172754804Y-141951227D01*
X172760765Y-141927429D01*
X172769030Y-141904329D01*
X172779520Y-141882151D01*
X172792133Y-141861107D01*
X172806747Y-141841402D01*
X172823223Y-141823223D01*
X172841402Y-141806747D01*
X172861107Y-141792133D01*
X172882151Y-141779520D01*
X172904329Y-141769030D01*
X172927429Y-141760765D01*
X172951227Y-141754804D01*
X172975496Y-141751204D01*
X173000000Y-141750000D01*
X174000000Y-141750000D01*
X174024504Y-141751204D01*
X174024504Y-141751204D01*
G37*
D11*
G04 #@! TD*
G04 #@! TO.P,J2,1*
G04 #@! TO.N,Net-(C4-Pad1)*
X173500000Y-142500000D03*
G04 #@! TO.P,J2,2*
G04 #@! TO.N,GND*
X173500000Y-145500000D03*
G04 #@! TD*
D12*
G04 #@! TO.P,TP1,1*
G04 #@! TO.N,Net-(C6-Pad1)*
X184500000Y-115000000D03*
D13*
G04 #@! TO.P,TP1,2*
G04 #@! TO.N,GND*
X184500000Y-112460000D03*
G04 #@! TD*
G04 #@! TO.P,TP2,2*
G04 #@! TO.N,GND*
X166500000Y-128540000D03*
D12*
G04 #@! TO.P,TP2,1*
G04 #@! TO.N,Net-(D5-Pad2)*
X166500000Y-126000000D03*
G04 #@! TD*
G04 #@! TO.P,TP3,1*
G04 #@! TO.N,Net-(C4-Pad1)*
X166500000Y-143500000D03*
D13*
G04 #@! TO.P,TP3,2*
G04 #@! TO.N,GND*
X166500000Y-146040000D03*
G04 #@! TD*
D14*
G04 #@! TO.N,GND*
X112500000Y-136000000D03*
X114500000Y-136000000D03*
X116500000Y-136000000D03*
X112500000Y-138000000D03*
X114500000Y-138000000D03*
X116500000Y-138000000D03*
X184500000Y-127000000D03*
X184500000Y-125000000D03*
X184500000Y-129000000D03*
X165500000Y-103500000D03*
X163500000Y-103500000D03*
X165500000Y-105500000D03*
X163500000Y-105500000D03*
X165500000Y-107500000D03*
X163500000Y-107500000D03*
X148000000Y-103500000D03*
X146000000Y-103500000D03*
X148000000Y-105500000D03*
X146000000Y-105500000D03*
X148000000Y-107500000D03*
X146000000Y-107500000D03*
X128500000Y-103500000D03*
X130500000Y-103500000D03*
X130500000Y-105500000D03*
X128500000Y-105500000D03*
X130500000Y-107500000D03*
X128500000Y-107500000D03*
X111000000Y-103500000D03*
X113000000Y-103500000D03*
X113000000Y-105500000D03*
X111000000Y-105500000D03*
X113000000Y-107500000D03*
X111000000Y-107500000D03*
X152500000Y-135000000D03*
X152500000Y-132000000D03*
X149500000Y-135000000D03*
X149500000Y-132000000D03*
X146500000Y-135000000D03*
X146500000Y-132000000D03*
X149500000Y-129000000D03*
X146500000Y-129000000D03*
X149500000Y-126000000D03*
X146500000Y-126000000D03*
X149500000Y-138000000D03*
X146500000Y-138000000D03*
X163500000Y-146000000D03*
X166500000Y-131000000D03*
X164500000Y-131000000D03*
G04 #@! TO.N,Net-(Q1-Pad2)*
X186000000Y-134000000D03*
X183000000Y-134000000D03*
X180000000Y-134000000D03*
X186000000Y-137000000D03*
X183000000Y-137000000D03*
X180000000Y-137000000D03*
X186000000Y-140000000D03*
X183000000Y-140000000D03*
X180000000Y-140000000D03*
X180000000Y-143000000D03*
X180000000Y-146000000D03*
X186000000Y-120000000D03*
X183000000Y-120000000D03*
X180000000Y-120000000D03*
X180000000Y-108000000D03*
X180000000Y-105000000D03*
X180000000Y-102000000D03*
G04 #@! TD*
D15*
G04 #@! TO.N,Net-(Q1-Pad2)*
G36*
X189823001Y-149823000D02*
X178127000Y-149823000D01*
X178127000Y-144258654D01*
X181273000Y-144258654D01*
X181273000Y-145741346D01*
X181840402Y-147111176D01*
X182888824Y-148159598D01*
X184258654Y-148727000D01*
X185741346Y-148727000D01*
X187111176Y-148159598D01*
X188159598Y-147111176D01*
X188727000Y-145741346D01*
X188727000Y-144258654D01*
X188159598Y-142888824D01*
X187111176Y-141840402D01*
X185741346Y-141273000D01*
X184258654Y-141273000D01*
X182888824Y-141840402D01*
X181840402Y-142888824D01*
X181273000Y-144258654D01*
X178127000Y-144258654D01*
X178127000Y-138500000D01*
X178117333Y-138451399D01*
X178089803Y-138410197D01*
X178048601Y-138382667D01*
X178000000Y-138373000D01*
X170127000Y-138373000D01*
X170127000Y-131627000D01*
X187000000Y-131627000D01*
X187048601Y-131617333D01*
X187089803Y-131589803D01*
X187117333Y-131548601D01*
X187127000Y-131500000D01*
X187127000Y-122000000D01*
X187117333Y-121951399D01*
X187089803Y-121910197D01*
X187048601Y-121882667D01*
X187000000Y-121873000D01*
X178127000Y-121873000D01*
X178127000Y-117627000D01*
X187000000Y-117627000D01*
X187048601Y-117617333D01*
X187089803Y-117589803D01*
X187117333Y-117548601D01*
X187127000Y-117500000D01*
X187127000Y-109500000D01*
X187117333Y-109451399D01*
X187089803Y-109410197D01*
X187048601Y-109382667D01*
X187000000Y-109373000D01*
X178127000Y-109373000D01*
X178127000Y-104258654D01*
X181273000Y-104258654D01*
X181273000Y-105741346D01*
X181840402Y-107111176D01*
X182888824Y-108159598D01*
X184258654Y-108727000D01*
X185741346Y-108727000D01*
X187111176Y-108159598D01*
X188159598Y-107111176D01*
X188727000Y-105741346D01*
X188727000Y-104258654D01*
X188159598Y-102888824D01*
X187111176Y-101840402D01*
X185741346Y-101273000D01*
X184258654Y-101273000D01*
X182888824Y-101840402D01*
X181840402Y-102888824D01*
X181273000Y-104258654D01*
X178127000Y-104258654D01*
X178127000Y-100177000D01*
X189823000Y-100177000D01*
X189823001Y-149823000D01*
X189823001Y-149823000D01*
G37*
X189823001Y-149823000D02*
X178127000Y-149823000D01*
X178127000Y-144258654D01*
X181273000Y-144258654D01*
X181273000Y-145741346D01*
X181840402Y-147111176D01*
X182888824Y-148159598D01*
X184258654Y-148727000D01*
X185741346Y-148727000D01*
X187111176Y-148159598D01*
X188159598Y-147111176D01*
X188727000Y-145741346D01*
X188727000Y-144258654D01*
X188159598Y-142888824D01*
X187111176Y-141840402D01*
X185741346Y-141273000D01*
X184258654Y-141273000D01*
X182888824Y-141840402D01*
X181840402Y-142888824D01*
X181273000Y-144258654D01*
X178127000Y-144258654D01*
X178127000Y-138500000D01*
X178117333Y-138451399D01*
X178089803Y-138410197D01*
X178048601Y-138382667D01*
X178000000Y-138373000D01*
X170127000Y-138373000D01*
X170127000Y-131627000D01*
X187000000Y-131627000D01*
X187048601Y-131617333D01*
X187089803Y-131589803D01*
X187117333Y-131548601D01*
X187127000Y-131500000D01*
X187127000Y-122000000D01*
X187117333Y-121951399D01*
X187089803Y-121910197D01*
X187048601Y-121882667D01*
X187000000Y-121873000D01*
X178127000Y-121873000D01*
X178127000Y-117627000D01*
X187000000Y-117627000D01*
X187048601Y-117617333D01*
X187089803Y-117589803D01*
X187117333Y-117548601D01*
X187127000Y-117500000D01*
X187127000Y-109500000D01*
X187117333Y-109451399D01*
X187089803Y-109410197D01*
X187048601Y-109382667D01*
X187000000Y-109373000D01*
X178127000Y-109373000D01*
X178127000Y-104258654D01*
X181273000Y-104258654D01*
X181273000Y-105741346D01*
X181840402Y-107111176D01*
X182888824Y-108159598D01*
X184258654Y-108727000D01*
X185741346Y-108727000D01*
X187111176Y-108159598D01*
X188159598Y-107111176D01*
X188727000Y-105741346D01*
X188727000Y-104258654D01*
X188159598Y-102888824D01*
X187111176Y-101840402D01*
X185741346Y-101273000D01*
X184258654Y-101273000D01*
X182888824Y-101840402D01*
X181840402Y-102888824D01*
X181273000Y-104258654D01*
X178127000Y-104258654D01*
X178127000Y-100177000D01*
X189823000Y-100177000D01*
X189823001Y-149823000D01*
G04 #@! TO.N,GND*
G36*
X176873000Y-110500000D02*
X176882667Y-110548601D01*
X176910197Y-110589803D01*
X176951399Y-110617333D01*
X177000000Y-110627000D01*
X185873000Y-110627000D01*
X185873000Y-111937784D01*
X185771645Y-111693076D01*
X185381358Y-111264817D01*
X184856892Y-111018514D01*
X184627000Y-111139181D01*
X184627000Y-112333000D01*
X184647000Y-112333000D01*
X184647000Y-112587000D01*
X184627000Y-112587000D01*
X184627000Y-112607000D01*
X184373000Y-112607000D01*
X184373000Y-112587000D01*
X183179845Y-112587000D01*
X183058524Y-112816890D01*
X183228355Y-113226924D01*
X183618642Y-113655183D01*
X183962343Y-113816594D01*
X183650000Y-113816594D01*
X183522411Y-113841973D01*
X183414246Y-113914246D01*
X183341973Y-114022411D01*
X183316594Y-114150000D01*
X183316594Y-115850000D01*
X183341973Y-115977589D01*
X183414246Y-116085754D01*
X183522411Y-116158027D01*
X183650000Y-116183406D01*
X185350000Y-116183406D01*
X185477589Y-116158027D01*
X185585754Y-116085754D01*
X185658027Y-115977589D01*
X185683406Y-115850000D01*
X185683406Y-114150000D01*
X185658027Y-114022411D01*
X185585754Y-113914246D01*
X185477589Y-113841973D01*
X185350000Y-113816594D01*
X185037657Y-113816594D01*
X185381358Y-113655183D01*
X185771645Y-113226924D01*
X185873000Y-112982216D01*
X185873000Y-116373000D01*
X177000000Y-116373000D01*
X176951399Y-116382667D01*
X176910197Y-116410197D01*
X176882667Y-116451399D01*
X176873000Y-116500000D01*
X176873000Y-123000000D01*
X176882667Y-123048601D01*
X176910197Y-123089803D01*
X176951399Y-123117333D01*
X177000000Y-123127000D01*
X185873000Y-123127000D01*
X185873000Y-130373000D01*
X169000000Y-130373000D01*
X168951399Y-130382667D01*
X168910197Y-130410197D01*
X168882667Y-130451399D01*
X168873000Y-130500000D01*
X168873000Y-139500000D01*
X168882667Y-139548601D01*
X168910197Y-139589803D01*
X168951399Y-139617333D01*
X169000000Y-139627000D01*
X176873000Y-139627000D01*
X176873000Y-145699363D01*
X176664501Y-145613000D01*
X176335499Y-145613000D01*
X176031542Y-145738903D01*
X175798903Y-145971542D01*
X175673000Y-146275499D01*
X175673000Y-146604501D01*
X175798903Y-146908458D01*
X176031542Y-147141097D01*
X176335499Y-147267000D01*
X176664501Y-147267000D01*
X176873000Y-147180637D01*
X176873000Y-149823000D01*
X100177000Y-149823000D01*
X100177000Y-144258654D01*
X101273000Y-144258654D01*
X101273000Y-145741346D01*
X101840402Y-147111176D01*
X102888824Y-148159598D01*
X104258654Y-148727000D01*
X105741346Y-148727000D01*
X107111176Y-148159598D01*
X108159598Y-147111176D01*
X108727000Y-145741346D01*
X108727000Y-144258654D01*
X108557128Y-143848545D01*
X143303000Y-143848545D01*
X143303000Y-145291455D01*
X143855178Y-146624530D01*
X144875470Y-147644822D01*
X146208545Y-148197000D01*
X147651455Y-148197000D01*
X148984530Y-147644822D01*
X150004822Y-146624530D01*
X150099113Y-146396890D01*
X165058524Y-146396890D01*
X165228355Y-146806924D01*
X165618642Y-147235183D01*
X166143108Y-147481486D01*
X166373000Y-147360819D01*
X166373000Y-146167000D01*
X166627000Y-146167000D01*
X166627000Y-147360819D01*
X166856892Y-147481486D01*
X167381358Y-147235183D01*
X167771645Y-146806924D01*
X167941476Y-146396890D01*
X167877414Y-146275499D01*
X169673000Y-146275499D01*
X169673000Y-146604501D01*
X169798903Y-146908458D01*
X170031542Y-147141097D01*
X170335499Y-147267000D01*
X170664501Y-147267000D01*
X170968458Y-147141097D01*
X171201097Y-146908458D01*
X171327000Y-146604501D01*
X171327000Y-146471517D01*
X172708088Y-146471517D01*
X172776077Y-146712460D01*
X173295171Y-146897201D01*
X173845448Y-146869230D01*
X174223923Y-146712460D01*
X174291912Y-146471517D01*
X173500000Y-145679605D01*
X172708088Y-146471517D01*
X171327000Y-146471517D01*
X171327000Y-146275499D01*
X171201097Y-145971542D01*
X170968458Y-145738903D01*
X170664501Y-145613000D01*
X170335499Y-145613000D01*
X170031542Y-145738903D01*
X169798903Y-145971542D01*
X169673000Y-146275499D01*
X167877414Y-146275499D01*
X167820155Y-146167000D01*
X166627000Y-146167000D01*
X166373000Y-146167000D01*
X165179845Y-146167000D01*
X165058524Y-146396890D01*
X150099113Y-146396890D01*
X150394770Y-145683110D01*
X165058524Y-145683110D01*
X165179845Y-145913000D01*
X166373000Y-145913000D01*
X166373000Y-145893000D01*
X166627000Y-145893000D01*
X166627000Y-145913000D01*
X167820155Y-145913000D01*
X167941476Y-145683110D01*
X167780797Y-145295171D01*
X172102799Y-145295171D01*
X172130770Y-145845448D01*
X172287540Y-146223923D01*
X172528483Y-146291912D01*
X173320395Y-145500000D01*
X173679605Y-145500000D01*
X174471517Y-146291912D01*
X174712460Y-146223923D01*
X174897201Y-145704829D01*
X174869230Y-145154552D01*
X174712460Y-144776077D01*
X174471517Y-144708088D01*
X173679605Y-145500000D01*
X173320395Y-145500000D01*
X172528483Y-144708088D01*
X172287540Y-144776077D01*
X172102799Y-145295171D01*
X167780797Y-145295171D01*
X167771645Y-145273076D01*
X167381358Y-144844817D01*
X167037657Y-144683406D01*
X167350000Y-144683406D01*
X167477589Y-144658027D01*
X167585754Y-144585754D01*
X167624020Y-144528483D01*
X172708088Y-144528483D01*
X173500000Y-145320395D01*
X174291912Y-144528483D01*
X174223923Y-144287540D01*
X173704829Y-144102799D01*
X173154552Y-144130770D01*
X172776077Y-144287540D01*
X172708088Y-144528483D01*
X167624020Y-144528483D01*
X167658027Y-144477589D01*
X167683406Y-144350000D01*
X167683406Y-142650000D01*
X167658027Y-142522411D01*
X167585754Y-142414246D01*
X167477589Y-142341973D01*
X167350000Y-142316594D01*
X165650000Y-142316594D01*
X165522411Y-142341973D01*
X165414246Y-142414246D01*
X165341973Y-142522411D01*
X165316594Y-142650000D01*
X165316594Y-144350000D01*
X165341973Y-144477589D01*
X165414246Y-144585754D01*
X165522411Y-144658027D01*
X165650000Y-144683406D01*
X165962343Y-144683406D01*
X165618642Y-144844817D01*
X165228355Y-145273076D01*
X165058524Y-145683110D01*
X150394770Y-145683110D01*
X150557000Y-145291455D01*
X150557000Y-143848545D01*
X150004822Y-142515470D01*
X149489352Y-142000000D01*
X172416594Y-142000000D01*
X172416594Y-143000000D01*
X172461003Y-143223260D01*
X172587470Y-143412530D01*
X172776740Y-143538997D01*
X173000000Y-143583406D01*
X174000000Y-143583406D01*
X174223260Y-143538997D01*
X174412530Y-143412530D01*
X174538997Y-143223260D01*
X174583406Y-143000000D01*
X174583406Y-142000000D01*
X174538997Y-141776740D01*
X174412530Y-141587470D01*
X174223260Y-141461003D01*
X174000000Y-141416594D01*
X173000000Y-141416594D01*
X172776740Y-141461003D01*
X172587470Y-141587470D01*
X172461003Y-141776740D01*
X172416594Y-142000000D01*
X149489352Y-142000000D01*
X148984530Y-141495178D01*
X147651455Y-140943000D01*
X146208545Y-140943000D01*
X144875470Y-141495178D01*
X143855178Y-142515470D01*
X143303000Y-143848545D01*
X108557128Y-143848545D01*
X108159598Y-142888824D01*
X107111176Y-141840402D01*
X105741346Y-141273000D01*
X104258654Y-141273000D01*
X102888824Y-141840402D01*
X101840402Y-142888824D01*
X101273000Y-144258654D01*
X100177000Y-144258654D01*
X100177000Y-136127000D01*
X111000000Y-136127000D01*
X111048601Y-136117333D01*
X111089803Y-136089803D01*
X111117333Y-136048601D01*
X111127000Y-136000000D01*
X111127000Y-126690643D01*
X113353000Y-126690643D01*
X113353000Y-128169357D01*
X113918880Y-129535511D01*
X114964489Y-130581120D01*
X116330643Y-131147000D01*
X117809357Y-131147000D01*
X119175511Y-130581120D01*
X120221120Y-129535511D01*
X120485645Y-128896890D01*
X165058524Y-128896890D01*
X165228355Y-129306924D01*
X165618642Y-129735183D01*
X166143108Y-129981486D01*
X166373000Y-129860819D01*
X166373000Y-128667000D01*
X166627000Y-128667000D01*
X166627000Y-129860819D01*
X166856892Y-129981486D01*
X167381358Y-129735183D01*
X167771645Y-129306924D01*
X167941476Y-128896890D01*
X167820155Y-128667000D01*
X166627000Y-128667000D01*
X166373000Y-128667000D01*
X165179845Y-128667000D01*
X165058524Y-128896890D01*
X120485645Y-128896890D01*
X120781303Y-128183110D01*
X165058524Y-128183110D01*
X165179845Y-128413000D01*
X166373000Y-128413000D01*
X166373000Y-128393000D01*
X166627000Y-128393000D01*
X166627000Y-128413000D01*
X167820155Y-128413000D01*
X167941476Y-128183110D01*
X167771645Y-127773076D01*
X167381358Y-127344817D01*
X167037657Y-127183406D01*
X167350000Y-127183406D01*
X167477589Y-127158027D01*
X167585754Y-127085754D01*
X167658027Y-126977589D01*
X167683406Y-126850000D01*
X167683406Y-125150000D01*
X167658027Y-125022411D01*
X167585754Y-124914246D01*
X167477589Y-124841973D01*
X167350000Y-124816594D01*
X165650000Y-124816594D01*
X165522411Y-124841973D01*
X165414246Y-124914246D01*
X165341973Y-125022411D01*
X165316594Y-125150000D01*
X165316594Y-126850000D01*
X165341973Y-126977589D01*
X165414246Y-127085754D01*
X165522411Y-127158027D01*
X165650000Y-127183406D01*
X165962343Y-127183406D01*
X165618642Y-127344817D01*
X165228355Y-127773076D01*
X165058524Y-128183110D01*
X120781303Y-128183110D01*
X120787000Y-128169357D01*
X120787000Y-126690643D01*
X120221120Y-125324489D01*
X119175511Y-124278880D01*
X117809357Y-123713000D01*
X116330643Y-123713000D01*
X114964489Y-124278880D01*
X113918880Y-125324489D01*
X113353000Y-126690643D01*
X111127000Y-126690643D01*
X111127000Y-124387000D01*
X111164501Y-124387000D01*
X111468458Y-124261097D01*
X111701097Y-124028458D01*
X111827000Y-123724501D01*
X111827000Y-123395499D01*
X111701097Y-123091542D01*
X111468458Y-122858903D01*
X111164501Y-122733000D01*
X111127000Y-122733000D01*
X111127000Y-115000000D01*
X111117333Y-114951399D01*
X111089803Y-114910197D01*
X111048601Y-114882667D01*
X111000000Y-114873000D01*
X100177000Y-114873000D01*
X100177000Y-112103110D01*
X183058524Y-112103110D01*
X183179845Y-112333000D01*
X184373000Y-112333000D01*
X184373000Y-111139181D01*
X184143108Y-111018514D01*
X183618642Y-111264817D01*
X183228355Y-111693076D01*
X183058524Y-112103110D01*
X100177000Y-112103110D01*
X100177000Y-104258654D01*
X101273000Y-104258654D01*
X101273000Y-105741346D01*
X101840402Y-107111176D01*
X102888824Y-108159598D01*
X104258654Y-108727000D01*
X105741346Y-108727000D01*
X107111176Y-108159598D01*
X108159598Y-107111176D01*
X108727000Y-105741346D01*
X108727000Y-104258654D01*
X108159598Y-102888824D01*
X107111176Y-101840402D01*
X105741346Y-101273000D01*
X104258654Y-101273000D01*
X102888824Y-101840402D01*
X101840402Y-102888824D01*
X101273000Y-104258654D01*
X100177000Y-104258654D01*
X100177000Y-100177000D01*
X176873000Y-100177000D01*
X176873000Y-110500000D01*
X176873000Y-110500000D01*
G37*
X176873000Y-110500000D02*
X176882667Y-110548601D01*
X176910197Y-110589803D01*
X176951399Y-110617333D01*
X177000000Y-110627000D01*
X185873000Y-110627000D01*
X185873000Y-111937784D01*
X185771645Y-111693076D01*
X185381358Y-111264817D01*
X184856892Y-111018514D01*
X184627000Y-111139181D01*
X184627000Y-112333000D01*
X184647000Y-112333000D01*
X184647000Y-112587000D01*
X184627000Y-112587000D01*
X184627000Y-112607000D01*
X184373000Y-112607000D01*
X184373000Y-112587000D01*
X183179845Y-112587000D01*
X183058524Y-112816890D01*
X183228355Y-113226924D01*
X183618642Y-113655183D01*
X183962343Y-113816594D01*
X183650000Y-113816594D01*
X183522411Y-113841973D01*
X183414246Y-113914246D01*
X183341973Y-114022411D01*
X183316594Y-114150000D01*
X183316594Y-115850000D01*
X183341973Y-115977589D01*
X183414246Y-116085754D01*
X183522411Y-116158027D01*
X183650000Y-116183406D01*
X185350000Y-116183406D01*
X185477589Y-116158027D01*
X185585754Y-116085754D01*
X185658027Y-115977589D01*
X185683406Y-115850000D01*
X185683406Y-114150000D01*
X185658027Y-114022411D01*
X185585754Y-113914246D01*
X185477589Y-113841973D01*
X185350000Y-113816594D01*
X185037657Y-113816594D01*
X185381358Y-113655183D01*
X185771645Y-113226924D01*
X185873000Y-112982216D01*
X185873000Y-116373000D01*
X177000000Y-116373000D01*
X176951399Y-116382667D01*
X176910197Y-116410197D01*
X176882667Y-116451399D01*
X176873000Y-116500000D01*
X176873000Y-123000000D01*
X176882667Y-123048601D01*
X176910197Y-123089803D01*
X176951399Y-123117333D01*
X177000000Y-123127000D01*
X185873000Y-123127000D01*
X185873000Y-130373000D01*
X169000000Y-130373000D01*
X168951399Y-130382667D01*
X168910197Y-130410197D01*
X168882667Y-130451399D01*
X168873000Y-130500000D01*
X168873000Y-139500000D01*
X168882667Y-139548601D01*
X168910197Y-139589803D01*
X168951399Y-139617333D01*
X169000000Y-139627000D01*
X176873000Y-139627000D01*
X176873000Y-145699363D01*
X176664501Y-145613000D01*
X176335499Y-145613000D01*
X176031542Y-145738903D01*
X175798903Y-145971542D01*
X175673000Y-146275499D01*
X175673000Y-146604501D01*
X175798903Y-146908458D01*
X176031542Y-147141097D01*
X176335499Y-147267000D01*
X176664501Y-147267000D01*
X176873000Y-147180637D01*
X176873000Y-149823000D01*
X100177000Y-149823000D01*
X100177000Y-144258654D01*
X101273000Y-144258654D01*
X101273000Y-145741346D01*
X101840402Y-147111176D01*
X102888824Y-148159598D01*
X104258654Y-148727000D01*
X105741346Y-148727000D01*
X107111176Y-148159598D01*
X108159598Y-147111176D01*
X108727000Y-145741346D01*
X108727000Y-144258654D01*
X108557128Y-143848545D01*
X143303000Y-143848545D01*
X143303000Y-145291455D01*
X143855178Y-146624530D01*
X144875470Y-147644822D01*
X146208545Y-148197000D01*
X147651455Y-148197000D01*
X148984530Y-147644822D01*
X150004822Y-146624530D01*
X150099113Y-146396890D01*
X165058524Y-146396890D01*
X165228355Y-146806924D01*
X165618642Y-147235183D01*
X166143108Y-147481486D01*
X166373000Y-147360819D01*
X166373000Y-146167000D01*
X166627000Y-146167000D01*
X166627000Y-147360819D01*
X166856892Y-147481486D01*
X167381358Y-147235183D01*
X167771645Y-146806924D01*
X167941476Y-146396890D01*
X167877414Y-146275499D01*
X169673000Y-146275499D01*
X169673000Y-146604501D01*
X169798903Y-146908458D01*
X170031542Y-147141097D01*
X170335499Y-147267000D01*
X170664501Y-147267000D01*
X170968458Y-147141097D01*
X171201097Y-146908458D01*
X171327000Y-146604501D01*
X171327000Y-146471517D01*
X172708088Y-146471517D01*
X172776077Y-146712460D01*
X173295171Y-146897201D01*
X173845448Y-146869230D01*
X174223923Y-146712460D01*
X174291912Y-146471517D01*
X173500000Y-145679605D01*
X172708088Y-146471517D01*
X171327000Y-146471517D01*
X171327000Y-146275499D01*
X171201097Y-145971542D01*
X170968458Y-145738903D01*
X170664501Y-145613000D01*
X170335499Y-145613000D01*
X170031542Y-145738903D01*
X169798903Y-145971542D01*
X169673000Y-146275499D01*
X167877414Y-146275499D01*
X167820155Y-146167000D01*
X166627000Y-146167000D01*
X166373000Y-146167000D01*
X165179845Y-146167000D01*
X165058524Y-146396890D01*
X150099113Y-146396890D01*
X150394770Y-145683110D01*
X165058524Y-145683110D01*
X165179845Y-145913000D01*
X166373000Y-145913000D01*
X166373000Y-145893000D01*
X166627000Y-145893000D01*
X166627000Y-145913000D01*
X167820155Y-145913000D01*
X167941476Y-145683110D01*
X167780797Y-145295171D01*
X172102799Y-145295171D01*
X172130770Y-145845448D01*
X172287540Y-146223923D01*
X172528483Y-146291912D01*
X173320395Y-145500000D01*
X173679605Y-145500000D01*
X174471517Y-146291912D01*
X174712460Y-146223923D01*
X174897201Y-145704829D01*
X174869230Y-145154552D01*
X174712460Y-144776077D01*
X174471517Y-144708088D01*
X173679605Y-145500000D01*
X173320395Y-145500000D01*
X172528483Y-144708088D01*
X172287540Y-144776077D01*
X172102799Y-145295171D01*
X167780797Y-145295171D01*
X167771645Y-145273076D01*
X167381358Y-144844817D01*
X167037657Y-144683406D01*
X167350000Y-144683406D01*
X167477589Y-144658027D01*
X167585754Y-144585754D01*
X167624020Y-144528483D01*
X172708088Y-144528483D01*
X173500000Y-145320395D01*
X174291912Y-144528483D01*
X174223923Y-144287540D01*
X173704829Y-144102799D01*
X173154552Y-144130770D01*
X172776077Y-144287540D01*
X172708088Y-144528483D01*
X167624020Y-144528483D01*
X167658027Y-144477589D01*
X167683406Y-144350000D01*
X167683406Y-142650000D01*
X167658027Y-142522411D01*
X167585754Y-142414246D01*
X167477589Y-142341973D01*
X167350000Y-142316594D01*
X165650000Y-142316594D01*
X165522411Y-142341973D01*
X165414246Y-142414246D01*
X165341973Y-142522411D01*
X165316594Y-142650000D01*
X165316594Y-144350000D01*
X165341973Y-144477589D01*
X165414246Y-144585754D01*
X165522411Y-144658027D01*
X165650000Y-144683406D01*
X165962343Y-144683406D01*
X165618642Y-144844817D01*
X165228355Y-145273076D01*
X165058524Y-145683110D01*
X150394770Y-145683110D01*
X150557000Y-145291455D01*
X150557000Y-143848545D01*
X150004822Y-142515470D01*
X149489352Y-142000000D01*
X172416594Y-142000000D01*
X172416594Y-143000000D01*
X172461003Y-143223260D01*
X172587470Y-143412530D01*
X172776740Y-143538997D01*
X173000000Y-143583406D01*
X174000000Y-143583406D01*
X174223260Y-143538997D01*
X174412530Y-143412530D01*
X174538997Y-143223260D01*
X174583406Y-143000000D01*
X174583406Y-142000000D01*
X174538997Y-141776740D01*
X174412530Y-141587470D01*
X174223260Y-141461003D01*
X174000000Y-141416594D01*
X173000000Y-141416594D01*
X172776740Y-141461003D01*
X172587470Y-141587470D01*
X172461003Y-141776740D01*
X172416594Y-142000000D01*
X149489352Y-142000000D01*
X148984530Y-141495178D01*
X147651455Y-140943000D01*
X146208545Y-140943000D01*
X144875470Y-141495178D01*
X143855178Y-142515470D01*
X143303000Y-143848545D01*
X108557128Y-143848545D01*
X108159598Y-142888824D01*
X107111176Y-141840402D01*
X105741346Y-141273000D01*
X104258654Y-141273000D01*
X102888824Y-141840402D01*
X101840402Y-142888824D01*
X101273000Y-144258654D01*
X100177000Y-144258654D01*
X100177000Y-136127000D01*
X111000000Y-136127000D01*
X111048601Y-136117333D01*
X111089803Y-136089803D01*
X111117333Y-136048601D01*
X111127000Y-136000000D01*
X111127000Y-126690643D01*
X113353000Y-126690643D01*
X113353000Y-128169357D01*
X113918880Y-129535511D01*
X114964489Y-130581120D01*
X116330643Y-131147000D01*
X117809357Y-131147000D01*
X119175511Y-130581120D01*
X120221120Y-129535511D01*
X120485645Y-128896890D01*
X165058524Y-128896890D01*
X165228355Y-129306924D01*
X165618642Y-129735183D01*
X166143108Y-129981486D01*
X166373000Y-129860819D01*
X166373000Y-128667000D01*
X166627000Y-128667000D01*
X166627000Y-129860819D01*
X166856892Y-129981486D01*
X167381358Y-129735183D01*
X167771645Y-129306924D01*
X167941476Y-128896890D01*
X167820155Y-128667000D01*
X166627000Y-128667000D01*
X166373000Y-128667000D01*
X165179845Y-128667000D01*
X165058524Y-128896890D01*
X120485645Y-128896890D01*
X120781303Y-128183110D01*
X165058524Y-128183110D01*
X165179845Y-128413000D01*
X166373000Y-128413000D01*
X166373000Y-128393000D01*
X166627000Y-128393000D01*
X166627000Y-128413000D01*
X167820155Y-128413000D01*
X167941476Y-128183110D01*
X167771645Y-127773076D01*
X167381358Y-127344817D01*
X167037657Y-127183406D01*
X167350000Y-127183406D01*
X167477589Y-127158027D01*
X167585754Y-127085754D01*
X167658027Y-126977589D01*
X167683406Y-126850000D01*
X167683406Y-125150000D01*
X167658027Y-125022411D01*
X167585754Y-124914246D01*
X167477589Y-124841973D01*
X167350000Y-124816594D01*
X165650000Y-124816594D01*
X165522411Y-124841973D01*
X165414246Y-124914246D01*
X165341973Y-125022411D01*
X165316594Y-125150000D01*
X165316594Y-126850000D01*
X165341973Y-126977589D01*
X165414246Y-127085754D01*
X165522411Y-127158027D01*
X165650000Y-127183406D01*
X165962343Y-127183406D01*
X165618642Y-127344817D01*
X165228355Y-127773076D01*
X165058524Y-128183110D01*
X120781303Y-128183110D01*
X120787000Y-128169357D01*
X120787000Y-126690643D01*
X120221120Y-125324489D01*
X119175511Y-124278880D01*
X117809357Y-123713000D01*
X116330643Y-123713000D01*
X114964489Y-124278880D01*
X113918880Y-125324489D01*
X113353000Y-126690643D01*
X111127000Y-126690643D01*
X111127000Y-124387000D01*
X111164501Y-124387000D01*
X111468458Y-124261097D01*
X111701097Y-124028458D01*
X111827000Y-123724501D01*
X111827000Y-123395499D01*
X111701097Y-123091542D01*
X111468458Y-122858903D01*
X111164501Y-122733000D01*
X111127000Y-122733000D01*
X111127000Y-115000000D01*
X111117333Y-114951399D01*
X111089803Y-114910197D01*
X111048601Y-114882667D01*
X111000000Y-114873000D01*
X100177000Y-114873000D01*
X100177000Y-112103110D01*
X183058524Y-112103110D01*
X183179845Y-112333000D01*
X184373000Y-112333000D01*
X184373000Y-111139181D01*
X184143108Y-111018514D01*
X183618642Y-111264817D01*
X183228355Y-111693076D01*
X183058524Y-112103110D01*
X100177000Y-112103110D01*
X100177000Y-104258654D01*
X101273000Y-104258654D01*
X101273000Y-105741346D01*
X101840402Y-107111176D01*
X102888824Y-108159598D01*
X104258654Y-108727000D01*
X105741346Y-108727000D01*
X107111176Y-108159598D01*
X108159598Y-107111176D01*
X108727000Y-105741346D01*
X108727000Y-104258654D01*
X108159598Y-102888824D01*
X107111176Y-101840402D01*
X105741346Y-101273000D01*
X104258654Y-101273000D01*
X102888824Y-101840402D01*
X101840402Y-102888824D01*
X101273000Y-104258654D01*
X100177000Y-104258654D01*
X100177000Y-100177000D01*
X176873000Y-100177000D01*
X176873000Y-110500000D01*
G04 #@! TD*
M02*
