G04 #@! TF.GenerationSoftware,KiCad,Pcbnew,(5.0.1-3-g963ef8bb5)*
G04 #@! TF.CreationDate,2019-08-31T01:17:06-07:00*
G04 #@! TF.ProjectId,gppr,677070722E6B696361645F7063620000,rev?*
G04 #@! TF.SameCoordinates,Original*
G04 #@! TF.FileFunction,Legend,Top*
G04 #@! TF.FilePolarity,Positive*
%FSLAX46Y46*%
G04 Gerber Fmt 4.6, Leading zero omitted, Abs format (unit mm)*
G04 Created by KiCad (PCBNEW (5.0.1-3-g963ef8bb5)) date Saturday, August 31, 2019 at 01:17:06 AM*
%MOMM*%
%LPD*%
G01*
G04 APERTURE LIST*
%ADD10C,0.150000*%
%ADD11C,0.125000*%
%ADD12C,0.200000*%
%ADD13C,0.120000*%
G04 APERTURE END LIST*
D10*
X187785714Y-130235833D02*
X188595238Y-130235833D01*
X188690476Y-130283452D01*
X188738095Y-130331071D01*
X188785714Y-130426309D01*
X188785714Y-130569166D01*
X188738095Y-130664404D01*
X188404761Y-130235833D02*
X188452380Y-130331071D01*
X188452380Y-130521547D01*
X188404761Y-130616785D01*
X188357142Y-130664404D01*
X188261904Y-130712023D01*
X187976190Y-130712023D01*
X187880952Y-130664404D01*
X187833333Y-130616785D01*
X187785714Y-130521547D01*
X187785714Y-130331071D01*
X187833333Y-130235833D01*
X188452380Y-129759642D02*
X187785714Y-129759642D01*
X187452380Y-129759642D02*
X187500000Y-129807261D01*
X187547619Y-129759642D01*
X187500000Y-129712023D01*
X187452380Y-129759642D01*
X187547619Y-129759642D01*
X187785714Y-129426309D02*
X187785714Y-129045357D01*
X187452380Y-129283452D02*
X188309523Y-129283452D01*
X188404761Y-129235833D01*
X188452380Y-129140595D01*
X188452380Y-129045357D01*
X188452380Y-128712023D02*
X187452380Y-128712023D01*
X188452380Y-128283452D02*
X187928571Y-128283452D01*
X187833333Y-128331071D01*
X187785714Y-128426309D01*
X187785714Y-128569166D01*
X187833333Y-128664404D01*
X187880952Y-128712023D01*
X187785714Y-127378690D02*
X188452380Y-127378690D01*
X187785714Y-127807261D02*
X188309523Y-127807261D01*
X188404761Y-127759642D01*
X188452380Y-127664404D01*
X188452380Y-127521547D01*
X188404761Y-127426309D01*
X188357142Y-127378690D01*
X188452380Y-126902500D02*
X187452380Y-126902500D01*
X187833333Y-126902500D02*
X187785714Y-126807261D01*
X187785714Y-126616785D01*
X187833333Y-126521547D01*
X187880952Y-126473928D01*
X187976190Y-126426309D01*
X188261904Y-126426309D01*
X188357142Y-126473928D01*
X188404761Y-126521547D01*
X188452380Y-126616785D01*
X188452380Y-126807261D01*
X188404761Y-126902500D01*
X188357142Y-125997738D02*
X188404761Y-125950119D01*
X188452380Y-125997738D01*
X188404761Y-126045357D01*
X188357142Y-125997738D01*
X188452380Y-125997738D01*
X188404761Y-125092976D02*
X188452380Y-125188214D01*
X188452380Y-125378690D01*
X188404761Y-125473928D01*
X188357142Y-125521547D01*
X188261904Y-125569166D01*
X187976190Y-125569166D01*
X187880952Y-125521547D01*
X187833333Y-125473928D01*
X187785714Y-125378690D01*
X187785714Y-125188214D01*
X187833333Y-125092976D01*
X188452380Y-124521547D02*
X188404761Y-124616785D01*
X188357142Y-124664404D01*
X188261904Y-124712023D01*
X187976190Y-124712023D01*
X187880952Y-124664404D01*
X187833333Y-124616785D01*
X187785714Y-124521547D01*
X187785714Y-124378690D01*
X187833333Y-124283452D01*
X187880952Y-124235833D01*
X187976190Y-124188214D01*
X188261904Y-124188214D01*
X188357142Y-124235833D01*
X188404761Y-124283452D01*
X188452380Y-124378690D01*
X188452380Y-124521547D01*
X188452380Y-123759642D02*
X187785714Y-123759642D01*
X187880952Y-123759642D02*
X187833333Y-123712023D01*
X187785714Y-123616785D01*
X187785714Y-123473928D01*
X187833333Y-123378690D01*
X187928571Y-123331071D01*
X188452380Y-123331071D01*
X187928571Y-123331071D02*
X187833333Y-123283452D01*
X187785714Y-123188214D01*
X187785714Y-123045357D01*
X187833333Y-122950119D01*
X187928571Y-122902500D01*
X188452380Y-122902500D01*
X187404761Y-121712023D02*
X188690476Y-122569166D01*
X188452380Y-121378690D02*
X187785714Y-121378690D01*
X187880952Y-121378690D02*
X187833333Y-121331071D01*
X187785714Y-121235833D01*
X187785714Y-121092976D01*
X187833333Y-120997738D01*
X187928571Y-120950119D01*
X188452380Y-120950119D01*
X187928571Y-120950119D02*
X187833333Y-120902500D01*
X187785714Y-120807261D01*
X187785714Y-120664404D01*
X187833333Y-120569166D01*
X187928571Y-120521547D01*
X188452380Y-120521547D01*
X187785714Y-119616785D02*
X188595238Y-119616785D01*
X188690476Y-119664404D01*
X188738095Y-119712023D01*
X188785714Y-119807261D01*
X188785714Y-119950119D01*
X188738095Y-120045357D01*
X188404761Y-119616785D02*
X188452380Y-119712023D01*
X188452380Y-119902500D01*
X188404761Y-119997738D01*
X188357142Y-120045357D01*
X188261904Y-120092976D01*
X187976190Y-120092976D01*
X187880952Y-120045357D01*
X187833333Y-119997738D01*
X187785714Y-119902500D01*
X187785714Y-119712023D01*
X187833333Y-119616785D01*
X188452380Y-118997738D02*
X188404761Y-119092976D01*
X188357142Y-119140595D01*
X188261904Y-119188214D01*
X187976190Y-119188214D01*
X187880952Y-119140595D01*
X187833333Y-119092976D01*
X187785714Y-118997738D01*
X187785714Y-118854880D01*
X187833333Y-118759642D01*
X187880952Y-118712023D01*
X187976190Y-118664404D01*
X188261904Y-118664404D01*
X188357142Y-118712023D01*
X188404761Y-118759642D01*
X188452380Y-118854880D01*
X188452380Y-118997738D01*
X188404761Y-118283452D02*
X188452380Y-118188214D01*
X188452380Y-117997738D01*
X188404761Y-117902500D01*
X188309523Y-117854880D01*
X188261904Y-117854880D01*
X188166666Y-117902500D01*
X188119047Y-117997738D01*
X188119047Y-118140595D01*
X188071428Y-118235833D01*
X187976190Y-118283452D01*
X187928571Y-118283452D01*
X187833333Y-118235833D01*
X187785714Y-118140595D01*
X187785714Y-117997738D01*
X187833333Y-117902500D01*
X188404761Y-117473928D02*
X188452380Y-117378690D01*
X188452380Y-117188214D01*
X188404761Y-117092976D01*
X188309523Y-117045357D01*
X188261904Y-117045357D01*
X188166666Y-117092976D01*
X188119047Y-117188214D01*
X188119047Y-117331071D01*
X188071428Y-117426309D01*
X187976190Y-117473928D01*
X187928571Y-117473928D01*
X187833333Y-117426309D01*
X187785714Y-117331071D01*
X187785714Y-117188214D01*
X187833333Y-117092976D01*
X188404761Y-116235833D02*
X188452380Y-116331071D01*
X188452380Y-116521547D01*
X188404761Y-116616785D01*
X188309523Y-116664404D01*
X187928571Y-116664404D01*
X187833333Y-116616785D01*
X187785714Y-116521547D01*
X187785714Y-116331071D01*
X187833333Y-116235833D01*
X187928571Y-116188214D01*
X188023809Y-116188214D01*
X188119047Y-116664404D01*
X188452380Y-115616785D02*
X188404761Y-115712023D01*
X188309523Y-115759642D01*
X187452380Y-115759642D01*
X188452380Y-115235833D02*
X187785714Y-115235833D01*
X187452380Y-115235833D02*
X187500000Y-115283452D01*
X187547619Y-115235833D01*
X187500000Y-115188214D01*
X187452380Y-115235833D01*
X187547619Y-115235833D01*
X187785714Y-114759642D02*
X188452380Y-114759642D01*
X187880952Y-114759642D02*
X187833333Y-114712023D01*
X187785714Y-114616785D01*
X187785714Y-114473928D01*
X187833333Y-114378690D01*
X187928571Y-114331071D01*
X188452380Y-114331071D01*
X187404761Y-113140595D02*
X188690476Y-113997738D01*
X187785714Y-112378690D02*
X188595238Y-112378690D01*
X188690476Y-112426309D01*
X188738095Y-112473928D01*
X188785714Y-112569166D01*
X188785714Y-112712023D01*
X188738095Y-112807261D01*
X188404761Y-112378690D02*
X188452380Y-112473928D01*
X188452380Y-112664404D01*
X188404761Y-112759642D01*
X188357142Y-112807261D01*
X188261904Y-112854880D01*
X187976190Y-112854880D01*
X187880952Y-112807261D01*
X187833333Y-112759642D01*
X187785714Y-112664404D01*
X187785714Y-112473928D01*
X187833333Y-112378690D01*
X187785714Y-111902500D02*
X188785714Y-111902500D01*
X187833333Y-111902500D02*
X187785714Y-111807261D01*
X187785714Y-111616785D01*
X187833333Y-111521547D01*
X187880952Y-111473928D01*
X187976190Y-111426309D01*
X188261904Y-111426309D01*
X188357142Y-111473928D01*
X188404761Y-111521547D01*
X188452380Y-111616785D01*
X188452380Y-111807261D01*
X188404761Y-111902500D01*
X187785714Y-110997738D02*
X188785714Y-110997738D01*
X187833333Y-110997738D02*
X187785714Y-110902500D01*
X187785714Y-110712023D01*
X187833333Y-110616785D01*
X187880952Y-110569166D01*
X187976190Y-110521547D01*
X188261904Y-110521547D01*
X188357142Y-110569166D01*
X188404761Y-110616785D01*
X188452380Y-110712023D01*
X188452380Y-110902500D01*
X188404761Y-110997738D01*
X188452380Y-110092976D02*
X187785714Y-110092976D01*
X187976190Y-110092976D02*
X187880952Y-110045357D01*
X187833333Y-109997738D01*
X187785714Y-109902500D01*
X187785714Y-109807261D01*
D11*
X113394940Y-147500000D02*
X113299702Y-147452380D01*
X113156845Y-147452380D01*
X113013988Y-147500000D01*
X112918750Y-147595238D01*
X112871130Y-147690476D01*
X112823511Y-147880952D01*
X112823511Y-148023809D01*
X112871130Y-148214285D01*
X112918750Y-148309523D01*
X113013988Y-148404761D01*
X113156845Y-148452380D01*
X113252083Y-148452380D01*
X113394940Y-148404761D01*
X113442559Y-148357142D01*
X113442559Y-148023809D01*
X113252083Y-148023809D01*
X114013988Y-148452380D02*
X113918750Y-148404761D01*
X113871130Y-148357142D01*
X113823511Y-148261904D01*
X113823511Y-147976190D01*
X113871130Y-147880952D01*
X113918750Y-147833333D01*
X114013988Y-147785714D01*
X114156845Y-147785714D01*
X114252083Y-147833333D01*
X114299702Y-147880952D01*
X114347321Y-147976190D01*
X114347321Y-148261904D01*
X114299702Y-148357142D01*
X114252083Y-148404761D01*
X114156845Y-148452380D01*
X114013988Y-148452380D01*
X114728273Y-148404761D02*
X114823511Y-148452380D01*
X115013988Y-148452380D01*
X115109226Y-148404761D01*
X115156845Y-148309523D01*
X115156845Y-148261904D01*
X115109226Y-148166666D01*
X115013988Y-148119047D01*
X114871130Y-148119047D01*
X114775892Y-148071428D01*
X114728273Y-147976190D01*
X114728273Y-147928571D01*
X114775892Y-147833333D01*
X114871130Y-147785714D01*
X115013988Y-147785714D01*
X115109226Y-147833333D01*
X115537797Y-148404761D02*
X115633035Y-148452380D01*
X115823511Y-148452380D01*
X115918750Y-148404761D01*
X115966369Y-148309523D01*
X115966369Y-148261904D01*
X115918750Y-148166666D01*
X115823511Y-148119047D01*
X115680654Y-148119047D01*
X115585416Y-148071428D01*
X115537797Y-147976190D01*
X115537797Y-147928571D01*
X115585416Y-147833333D01*
X115680654Y-147785714D01*
X115823511Y-147785714D01*
X115918750Y-147833333D01*
X116775892Y-148404761D02*
X116680654Y-148452380D01*
X116490178Y-148452380D01*
X116394940Y-148404761D01*
X116347321Y-148309523D01*
X116347321Y-147928571D01*
X116394940Y-147833333D01*
X116490178Y-147785714D01*
X116680654Y-147785714D01*
X116775892Y-147833333D01*
X116823511Y-147928571D01*
X116823511Y-148023809D01*
X116347321Y-148119047D01*
X117394940Y-148452380D02*
X117299702Y-148404761D01*
X117252083Y-148309523D01*
X117252083Y-147452380D01*
X117775892Y-148452380D02*
X117775892Y-147785714D01*
X117775892Y-147452380D02*
X117728273Y-147500000D01*
X117775892Y-147547619D01*
X117823511Y-147500000D01*
X117775892Y-147452380D01*
X117775892Y-147547619D01*
X118252083Y-147785714D02*
X118252083Y-148452380D01*
X118252083Y-147880952D02*
X118299702Y-147833333D01*
X118394940Y-147785714D01*
X118537797Y-147785714D01*
X118633035Y-147833333D01*
X118680654Y-147928571D01*
X118680654Y-148452380D01*
X113490178Y-146452380D02*
X113490178Y-145452380D01*
X113823511Y-146166666D01*
X114156845Y-145452380D01*
X114156845Y-146452380D01*
X114633035Y-146452380D02*
X114633035Y-145785714D01*
X114633035Y-145452380D02*
X114585416Y-145500000D01*
X114633035Y-145547619D01*
X114680654Y-145500000D01*
X114633035Y-145452380D01*
X114633035Y-145547619D01*
X115537797Y-146404761D02*
X115442559Y-146452380D01*
X115252083Y-146452380D01*
X115156845Y-146404761D01*
X115109226Y-146357142D01*
X115061607Y-146261904D01*
X115061607Y-145976190D01*
X115109226Y-145880952D01*
X115156845Y-145833333D01*
X115252083Y-145785714D01*
X115442559Y-145785714D01*
X115537797Y-145833333D01*
X115966369Y-146452380D02*
X115966369Y-145452380D01*
X116394940Y-146452380D02*
X116394940Y-145928571D01*
X116347321Y-145833333D01*
X116252083Y-145785714D01*
X116109226Y-145785714D01*
X116013988Y-145833333D01*
X115966369Y-145880952D01*
X117299702Y-146452380D02*
X117299702Y-145928571D01*
X117252083Y-145833333D01*
X117156845Y-145785714D01*
X116966369Y-145785714D01*
X116871130Y-145833333D01*
X117299702Y-146404761D02*
X117204464Y-146452380D01*
X116966369Y-146452380D01*
X116871130Y-146404761D01*
X116823511Y-146309523D01*
X116823511Y-146214285D01*
X116871130Y-146119047D01*
X116966369Y-146071428D01*
X117204464Y-146071428D01*
X117299702Y-146023809D01*
X118156845Y-146404761D02*
X118061607Y-146452380D01*
X117871130Y-146452380D01*
X117775892Y-146404761D01*
X117728273Y-146309523D01*
X117728273Y-145928571D01*
X117775892Y-145833333D01*
X117871130Y-145785714D01*
X118061607Y-145785714D01*
X118156845Y-145833333D01*
X118204464Y-145928571D01*
X118204464Y-146023809D01*
X117728273Y-146119047D01*
X118775892Y-146452380D02*
X118680654Y-146404761D01*
X118633035Y-146309523D01*
X118633035Y-145452380D01*
X112537797Y-144833333D02*
X112490178Y-144785714D01*
X112394940Y-144642857D01*
X112347321Y-144547619D01*
X112299702Y-144404761D01*
X112252083Y-144166666D01*
X112252083Y-143976190D01*
X112299702Y-143738095D01*
X112347321Y-143595238D01*
X112394940Y-143500000D01*
X112490178Y-143357142D01*
X112537797Y-143309523D01*
X113490178Y-144357142D02*
X113442559Y-144404761D01*
X113299702Y-144452380D01*
X113204464Y-144452380D01*
X113061607Y-144404761D01*
X112966369Y-144309523D01*
X112918750Y-144214285D01*
X112871130Y-144023809D01*
X112871130Y-143880952D01*
X112918750Y-143690476D01*
X112966369Y-143595238D01*
X113061607Y-143500000D01*
X113204464Y-143452380D01*
X113299702Y-143452380D01*
X113442559Y-143500000D01*
X113490178Y-143547619D01*
X113823511Y-144833333D02*
X113871130Y-144785714D01*
X113966369Y-144642857D01*
X114013988Y-144547619D01*
X114061607Y-144404761D01*
X114109226Y-144166666D01*
X114109226Y-143976190D01*
X114061607Y-143738095D01*
X114013988Y-143595238D01*
X113966369Y-143500000D01*
X113871130Y-143357142D01*
X113823511Y-143309523D01*
X115299702Y-143547619D02*
X115347321Y-143500000D01*
X115442559Y-143452380D01*
X115680654Y-143452380D01*
X115775892Y-143500000D01*
X115823511Y-143547619D01*
X115871130Y-143642857D01*
X115871130Y-143738095D01*
X115823511Y-143880952D01*
X115252083Y-144452380D01*
X115871130Y-144452380D01*
X116490178Y-143452380D02*
X116585416Y-143452380D01*
X116680654Y-143500000D01*
X116728273Y-143547619D01*
X116775892Y-143642857D01*
X116823511Y-143833333D01*
X116823511Y-144071428D01*
X116775892Y-144261904D01*
X116728273Y-144357142D01*
X116680654Y-144404761D01*
X116585416Y-144452380D01*
X116490178Y-144452380D01*
X116394940Y-144404761D01*
X116347321Y-144357142D01*
X116299702Y-144261904D01*
X116252083Y-144071428D01*
X116252083Y-143833333D01*
X116299702Y-143642857D01*
X116347321Y-143547619D01*
X116394940Y-143500000D01*
X116490178Y-143452380D01*
X117775892Y-144452380D02*
X117204464Y-144452380D01*
X117490178Y-144452380D02*
X117490178Y-143452380D01*
X117394940Y-143595238D01*
X117299702Y-143690476D01*
X117204464Y-143738095D01*
X118252083Y-144452380D02*
X118442559Y-144452380D01*
X118537797Y-144404761D01*
X118585416Y-144357142D01*
X118680654Y-144214285D01*
X118728273Y-144023809D01*
X118728273Y-143642857D01*
X118680654Y-143547619D01*
X118633035Y-143500000D01*
X118537797Y-143452380D01*
X118347321Y-143452380D01*
X118252083Y-143500000D01*
X118204464Y-143547619D01*
X118156845Y-143642857D01*
X118156845Y-143880952D01*
X118204464Y-143976190D01*
X118252083Y-144023809D01*
X118347321Y-144071428D01*
X118537797Y-144071428D01*
X118633035Y-144023809D01*
X118680654Y-143976190D01*
X118728273Y-143880952D01*
D12*
X109941428Y-141375000D02*
X109822380Y-141315476D01*
X109643809Y-141315476D01*
X109465238Y-141375000D01*
X109346190Y-141494047D01*
X109286666Y-141613095D01*
X109227142Y-141851190D01*
X109227142Y-142029761D01*
X109286666Y-142267857D01*
X109346190Y-142386904D01*
X109465238Y-142505952D01*
X109643809Y-142565476D01*
X109762857Y-142565476D01*
X109941428Y-142505952D01*
X110000952Y-142446428D01*
X110000952Y-142029761D01*
X109762857Y-142029761D01*
X110536666Y-142565476D02*
X110536666Y-141315476D01*
X111012857Y-141315476D01*
X111131904Y-141375000D01*
X111191428Y-141434523D01*
X111250952Y-141553571D01*
X111250952Y-141732142D01*
X111191428Y-141851190D01*
X111131904Y-141910714D01*
X111012857Y-141970238D01*
X110536666Y-141970238D01*
X111786666Y-142565476D02*
X111786666Y-141315476D01*
X112262857Y-141315476D01*
X112381904Y-141375000D01*
X112441428Y-141434523D01*
X112500952Y-141553571D01*
X112500952Y-141732142D01*
X112441428Y-141851190D01*
X112381904Y-141910714D01*
X112262857Y-141970238D01*
X111786666Y-141970238D01*
X113750952Y-142565476D02*
X113334285Y-141970238D01*
X113036666Y-142565476D02*
X113036666Y-141315476D01*
X113512857Y-141315476D01*
X113631904Y-141375000D01*
X113691428Y-141434523D01*
X113750952Y-141553571D01*
X113750952Y-141732142D01*
X113691428Y-141851190D01*
X113631904Y-141910714D01*
X113512857Y-141970238D01*
X113036666Y-141970238D01*
X115120000Y-141732142D02*
X115417619Y-142565476D01*
X115715238Y-141732142D01*
X116429523Y-141315476D02*
X116548571Y-141315476D01*
X116667619Y-141375000D01*
X116727142Y-141434523D01*
X116786666Y-141553571D01*
X116846190Y-141791666D01*
X116846190Y-142089285D01*
X116786666Y-142327380D01*
X116727142Y-142446428D01*
X116667619Y-142505952D01*
X116548571Y-142565476D01*
X116429523Y-142565476D01*
X116310476Y-142505952D01*
X116250952Y-142446428D01*
X116191428Y-142327380D01*
X116131904Y-142089285D01*
X116131904Y-141791666D01*
X116191428Y-141553571D01*
X116250952Y-141434523D01*
X116310476Y-141375000D01*
X116429523Y-141315476D01*
X117381904Y-142446428D02*
X117441428Y-142505952D01*
X117381904Y-142565476D01*
X117322380Y-142505952D01*
X117381904Y-142446428D01*
X117381904Y-142565476D01*
X118631904Y-142565476D02*
X117917619Y-142565476D01*
X118274761Y-142565476D02*
X118274761Y-141315476D01*
X118155714Y-141494047D01*
X118036666Y-141613095D01*
X117917619Y-141672619D01*
G04 #@! TO.C,HS1*
X117070000Y-123500000D02*
X144250000Y-123500000D01*
X117070000Y-123510000D02*
G75*
G03X117070000Y-131350000I0J-3920000D01*
G01*
X117070000Y-131350000D02*
X119750000Y-131350000D01*
X119750000Y-148500000D02*
X146930000Y-148500000D01*
X144250000Y-140650000D02*
X146930000Y-140650000D01*
X146930000Y-148490000D02*
G75*
G03X146930000Y-140650000I0J3920000D01*
G01*
X144250000Y-140650000D02*
X144250000Y-123500000D01*
X119750000Y-131350000D02*
X119750000Y-148500000D01*
D13*
G04 #@! TO.C,C9*
X163940000Y-121650000D02*
X165940000Y-121650000D01*
X164940000Y-122650000D02*
X164940000Y-120650000D01*
X179345563Y-120410000D02*
X180410000Y-119345563D01*
X164654437Y-120410000D02*
X163590000Y-119345563D01*
X164654437Y-120410000D02*
X166940000Y-120410000D01*
X179345563Y-120410000D02*
X177060000Y-120410000D01*
X180410000Y-119345563D02*
X180410000Y-103590000D01*
X163590000Y-119345563D02*
X163590000Y-103590000D01*
X163590000Y-103590000D02*
X166940000Y-103590000D01*
X180410000Y-103590000D02*
X177060000Y-103590000D01*
G04 #@! TO.C,C1*
X179897936Y-123640000D02*
X181102064Y-123640000D01*
X179897936Y-126360000D02*
X181102064Y-126360000D01*
G04 #@! TO.C,C2*
X155102064Y-129860000D02*
X153897936Y-129860000D01*
X155102064Y-127140000D02*
X153897936Y-127140000D01*
G04 #@! TO.C,C3*
X155102064Y-125910000D02*
X153897936Y-125910000D01*
X155102064Y-124090000D02*
X153897936Y-124090000D01*
G04 #@! TO.C,C4*
X155102064Y-143860000D02*
X153897936Y-143860000D01*
X155102064Y-141140000D02*
X153897936Y-141140000D01*
G04 #@! TO.C,C5*
X155102064Y-138090000D02*
X153897936Y-138090000D01*
X155102064Y-139910000D02*
X153897936Y-139910000D01*
G04 #@! TO.C,C6*
X127910000Y-103590000D02*
X124560000Y-103590000D01*
X111090000Y-103590000D02*
X114440000Y-103590000D01*
X111090000Y-119345563D02*
X111090000Y-103590000D01*
X127910000Y-119345563D02*
X127910000Y-103590000D01*
X126845563Y-120410000D02*
X124560000Y-120410000D01*
X112154437Y-120410000D02*
X114440000Y-120410000D01*
X112154437Y-120410000D02*
X111090000Y-119345563D01*
X126845563Y-120410000D02*
X127910000Y-119345563D01*
X112440000Y-122650000D02*
X112440000Y-120650000D01*
X111440000Y-121650000D02*
X113440000Y-121650000D01*
G04 #@! TO.C,C7*
X128940000Y-121650000D02*
X130940000Y-121650000D01*
X129940000Y-122650000D02*
X129940000Y-120650000D01*
X144345563Y-120410000D02*
X145410000Y-119345563D01*
X129654437Y-120410000D02*
X128590000Y-119345563D01*
X129654437Y-120410000D02*
X131940000Y-120410000D01*
X144345563Y-120410000D02*
X142060000Y-120410000D01*
X145410000Y-119345563D02*
X145410000Y-103590000D01*
X128590000Y-119345563D02*
X128590000Y-103590000D01*
X128590000Y-103590000D02*
X131940000Y-103590000D01*
X145410000Y-103590000D02*
X142060000Y-103590000D01*
G04 #@! TO.C,C8*
X162910000Y-103590000D02*
X159560000Y-103590000D01*
X146090000Y-103590000D02*
X149440000Y-103590000D01*
X146090000Y-119345563D02*
X146090000Y-103590000D01*
X162910000Y-119345563D02*
X162910000Y-103590000D01*
X161845563Y-120410000D02*
X159560000Y-120410000D01*
X147154437Y-120410000D02*
X149440000Y-120410000D01*
X147154437Y-120410000D02*
X146090000Y-119345563D01*
X161845563Y-120410000D02*
X162910000Y-119345563D01*
X147440000Y-122650000D02*
X147440000Y-120650000D01*
X146440000Y-121650000D02*
X148440000Y-121650000D01*
G04 #@! TO.C,C10*
X159397936Y-127590000D02*
X160602064Y-127590000D01*
X159397936Y-129410000D02*
X160602064Y-129410000D01*
G04 #@! TO.C,D1*
X105650000Y-111450000D02*
X105650000Y-117150000D01*
X101350000Y-111450000D02*
X101350000Y-117150000D01*
X105650000Y-111450000D02*
X101350000Y-111450000D01*
G04 #@! TO.C,D2*
X105650000Y-132450000D02*
X101350000Y-132450000D01*
X101350000Y-132450000D02*
X101350000Y-138150000D01*
X105650000Y-132450000D02*
X105650000Y-138150000D01*
G04 #@! TO.C,D3*
X110150000Y-111450000D02*
X110150000Y-117150000D01*
X105850000Y-111450000D02*
X105850000Y-117150000D01*
X110150000Y-111450000D02*
X105850000Y-111450000D01*
G04 #@! TO.C,D4*
X110150000Y-132450000D02*
X110150000Y-138150000D01*
X105850000Y-132450000D02*
X105850000Y-138150000D01*
X110150000Y-132450000D02*
X105850000Y-132450000D01*
G04 #@! TO.C,D5*
X177050000Y-127150000D02*
X177050000Y-122850000D01*
X177050000Y-122850000D02*
X171350000Y-122850000D01*
X177050000Y-127150000D02*
X171350000Y-127150000D01*
G04 #@! TO.C,D6*
X167960000Y-135000000D02*
X167960000Y-132315000D01*
X167960000Y-132315000D02*
X166040000Y-132315000D01*
X166040000Y-132315000D02*
X166040000Y-135000000D01*
G04 #@! TO.C,J1*
X111435000Y-122800000D02*
X111435000Y-122490000D01*
X111435000Y-122490000D02*
X101565000Y-122490000D01*
X101565000Y-122490000D02*
X101565000Y-122800000D01*
X111435000Y-124320000D02*
X111435000Y-130080000D01*
X111435000Y-130080000D02*
X110015000Y-130080000D01*
X110015000Y-130080000D02*
X110015000Y-129580000D01*
X110015000Y-129580000D02*
X102985000Y-129580000D01*
X102985000Y-129580000D02*
X102985000Y-130080000D01*
X102985000Y-130080000D02*
X101565000Y-130080000D01*
X101565000Y-130080000D02*
X101565000Y-124320000D01*
G04 #@! TO.C,J2*
X170065000Y-147200000D02*
X170065000Y-147510000D01*
X170065000Y-147510000D02*
X176935000Y-147510000D01*
X176935000Y-147510000D02*
X176935000Y-147200000D01*
X170065000Y-145680000D02*
X170065000Y-139920000D01*
X170065000Y-139920000D02*
X171485000Y-139920000D01*
X171485000Y-139920000D02*
X171485000Y-140420000D01*
X171485000Y-140420000D02*
X175515000Y-140420000D01*
X175515000Y-140420000D02*
X175515000Y-139920000D01*
X175515000Y-139920000D02*
X176935000Y-139920000D01*
X176935000Y-139920000D02*
X176935000Y-145680000D01*
G04 #@! TO.C,J3*
X159800000Y-144000000D02*
X159800000Y-143500000D01*
X161200000Y-144000000D02*
X161200000Y-143500000D01*
X161200000Y-144000000D02*
X161800000Y-144000000D01*
X161800000Y-144000000D02*
X162000000Y-144200000D01*
X159000000Y-144200000D02*
X159000000Y-144000000D01*
X159000000Y-144000000D02*
X159800000Y-144000000D01*
X159800000Y-147000000D02*
X159000000Y-147000000D01*
X159000000Y-147000000D02*
X159000000Y-146800000D01*
X162000000Y-146800000D02*
X162000000Y-147000000D01*
X162000000Y-147000000D02*
X161200000Y-147000000D01*
G04 #@! TO.C,Q1*
X176950000Y-132030000D02*
X176950000Y-130530000D01*
X176950000Y-130530000D02*
X176680000Y-130530000D01*
X176680000Y-130530000D02*
X176680000Y-127700000D01*
X170050000Y-132030000D02*
X170050000Y-130530000D01*
X170050000Y-130530000D02*
X170320000Y-130530000D01*
X170320000Y-130530000D02*
X170320000Y-129430000D01*
G04 #@! TO.C,R1*
X163290000Y-138738748D02*
X163290000Y-139261252D01*
X164710000Y-138738748D02*
X164710000Y-139261252D01*
G04 #@! TO.C,R2*
X164710000Y-133738748D02*
X164710000Y-134261252D01*
X163290000Y-133738748D02*
X163290000Y-134261252D01*
G04 #@! TO.C,R3*
X167710000Y-138741422D02*
X167710000Y-139258578D01*
X166290000Y-138741422D02*
X166290000Y-139258578D01*
G04 #@! TO.C,R4*
X180241422Y-129710000D02*
X180758578Y-129710000D01*
X180241422Y-128290000D02*
X180758578Y-128290000D01*
G04 #@! TO.C,R5*
X182710000Y-117258578D02*
X182710000Y-116741422D01*
X181290000Y-117258578D02*
X181290000Y-116741422D01*
G04 #@! TO.C,R6*
X159741422Y-124290000D02*
X160258578Y-124290000D01*
X159741422Y-125710000D02*
X160258578Y-125710000D01*
G04 #@! TO.C,TP1*
X185830000Y-111130000D02*
X183170000Y-111130000D01*
X185830000Y-113730000D02*
X185830000Y-111130000D01*
X183170000Y-113730000D02*
X183170000Y-111130000D01*
X185830000Y-113730000D02*
X183170000Y-113730000D01*
X185830000Y-115000000D02*
X185830000Y-116330000D01*
X185830000Y-116330000D02*
X184500000Y-116330000D01*
G04 #@! TO.C,TP2*
X165170000Y-124670000D02*
X166500000Y-124670000D01*
X165170000Y-126000000D02*
X165170000Y-124670000D01*
X165170000Y-127270000D02*
X167830000Y-127270000D01*
X167830000Y-127270000D02*
X167830000Y-129870000D01*
X165170000Y-127270000D02*
X165170000Y-129870000D01*
X165170000Y-129870000D02*
X167830000Y-129870000D01*
G04 #@! TO.C,TP3*
X165170000Y-147370000D02*
X167830000Y-147370000D01*
X165170000Y-144770000D02*
X165170000Y-147370000D01*
X167830000Y-144770000D02*
X167830000Y-147370000D01*
X165170000Y-144770000D02*
X167830000Y-144770000D01*
X165170000Y-143500000D02*
X165170000Y-142170000D01*
X165170000Y-142170000D02*
X166500000Y-142170000D01*
D10*
G04 #@! TO.C,U1*
X155900000Y-131400000D02*
X156775000Y-131400000D01*
X161100000Y-136600000D02*
X160225000Y-136600000D01*
X161100000Y-131400000D02*
X160225000Y-131400000D01*
X155900000Y-136600000D02*
X155900000Y-135725000D01*
X161100000Y-136600000D02*
X161100000Y-135725000D01*
X161100000Y-131400000D02*
X161100000Y-132275000D01*
X155900000Y-131400000D02*
X155900000Y-132275000D01*
G04 #@! TO.C,HS1*
X152452380Y-148238095D02*
X151452380Y-148238095D01*
X151928571Y-148238095D02*
X151928571Y-147666666D01*
X152452380Y-147666666D02*
X151452380Y-147666666D01*
X152404761Y-147238095D02*
X152452380Y-147095238D01*
X152452380Y-146857142D01*
X152404761Y-146761904D01*
X152357142Y-146714285D01*
X152261904Y-146666666D01*
X152166666Y-146666666D01*
X152071428Y-146714285D01*
X152023809Y-146761904D01*
X151976190Y-146857142D01*
X151928571Y-147047619D01*
X151880952Y-147142857D01*
X151833333Y-147190476D01*
X151738095Y-147238095D01*
X151642857Y-147238095D01*
X151547619Y-147190476D01*
X151500000Y-147142857D01*
X151452380Y-147047619D01*
X151452380Y-146809523D01*
X151500000Y-146666666D01*
X152452380Y-145714285D02*
X152452380Y-146285714D01*
X152452380Y-146000000D02*
X151452380Y-146000000D01*
X151595238Y-146095238D01*
X151690476Y-146190476D01*
X151738095Y-146285714D01*
G04 #@! TO.C,C9*
X178333333Y-102857142D02*
X178285714Y-102904761D01*
X178142857Y-102952380D01*
X178047619Y-102952380D01*
X177904761Y-102904761D01*
X177809523Y-102809523D01*
X177761904Y-102714285D01*
X177714285Y-102523809D01*
X177714285Y-102380952D01*
X177761904Y-102190476D01*
X177809523Y-102095238D01*
X177904761Y-102000000D01*
X178047619Y-101952380D01*
X178142857Y-101952380D01*
X178285714Y-102000000D01*
X178333333Y-102047619D01*
X178809523Y-102952380D02*
X179000000Y-102952380D01*
X179095238Y-102904761D01*
X179142857Y-102857142D01*
X179238095Y-102714285D01*
X179285714Y-102523809D01*
X179285714Y-102142857D01*
X179238095Y-102047619D01*
X179190476Y-102000000D01*
X179095238Y-101952380D01*
X178904761Y-101952380D01*
X178809523Y-102000000D01*
X178761904Y-102047619D01*
X178714285Y-102142857D01*
X178714285Y-102380952D01*
X178761904Y-102476190D01*
X178809523Y-102523809D01*
X178904761Y-102571428D01*
X179095238Y-102571428D01*
X179190476Y-102523809D01*
X179238095Y-102476190D01*
X179285714Y-102380952D01*
G04 #@! TO.C,C1*
X179857142Y-122666666D02*
X179904761Y-122714285D01*
X179952380Y-122857142D01*
X179952380Y-122952380D01*
X179904761Y-123095238D01*
X179809523Y-123190476D01*
X179714285Y-123238095D01*
X179523809Y-123285714D01*
X179380952Y-123285714D01*
X179190476Y-123238095D01*
X179095238Y-123190476D01*
X179000000Y-123095238D01*
X178952380Y-122952380D01*
X178952380Y-122857142D01*
X179000000Y-122714285D01*
X179047619Y-122666666D01*
X179952380Y-121714285D02*
X179952380Y-122285714D01*
X179952380Y-122000000D02*
X178952380Y-122000000D01*
X179095238Y-122095238D01*
X179190476Y-122190476D01*
X179238095Y-122285714D01*
G04 #@! TO.C,C2*
X151857142Y-128666666D02*
X151904761Y-128714285D01*
X151952380Y-128857142D01*
X151952380Y-128952380D01*
X151904761Y-129095238D01*
X151809523Y-129190476D01*
X151714285Y-129238095D01*
X151523809Y-129285714D01*
X151380952Y-129285714D01*
X151190476Y-129238095D01*
X151095238Y-129190476D01*
X151000000Y-129095238D01*
X150952380Y-128952380D01*
X150952380Y-128857142D01*
X151000000Y-128714285D01*
X151047619Y-128666666D01*
X151047619Y-128285714D02*
X151000000Y-128238095D01*
X150952380Y-128142857D01*
X150952380Y-127904761D01*
X151000000Y-127809523D01*
X151047619Y-127761904D01*
X151142857Y-127714285D01*
X151238095Y-127714285D01*
X151380952Y-127761904D01*
X151952380Y-128333333D01*
X151952380Y-127714285D01*
G04 #@! TO.C,C3*
X151857142Y-125166666D02*
X151904761Y-125214285D01*
X151952380Y-125357142D01*
X151952380Y-125452380D01*
X151904761Y-125595238D01*
X151809523Y-125690476D01*
X151714285Y-125738095D01*
X151523809Y-125785714D01*
X151380952Y-125785714D01*
X151190476Y-125738095D01*
X151095238Y-125690476D01*
X151000000Y-125595238D01*
X150952380Y-125452380D01*
X150952380Y-125357142D01*
X151000000Y-125214285D01*
X151047619Y-125166666D01*
X150952380Y-124833333D02*
X150952380Y-124214285D01*
X151333333Y-124547619D01*
X151333333Y-124404761D01*
X151380952Y-124309523D01*
X151428571Y-124261904D01*
X151523809Y-124214285D01*
X151761904Y-124214285D01*
X151857142Y-124261904D01*
X151904761Y-124309523D01*
X151952380Y-124404761D01*
X151952380Y-124690476D01*
X151904761Y-124785714D01*
X151857142Y-124833333D01*
G04 #@! TO.C,C4*
X151857142Y-142666666D02*
X151904761Y-142714285D01*
X151952380Y-142857142D01*
X151952380Y-142952380D01*
X151904761Y-143095238D01*
X151809523Y-143190476D01*
X151714285Y-143238095D01*
X151523809Y-143285714D01*
X151380952Y-143285714D01*
X151190476Y-143238095D01*
X151095238Y-143190476D01*
X151000000Y-143095238D01*
X150952380Y-142952380D01*
X150952380Y-142857142D01*
X151000000Y-142714285D01*
X151047619Y-142666666D01*
X151285714Y-141809523D02*
X151952380Y-141809523D01*
X150904761Y-142047619D02*
X151619047Y-142285714D01*
X151619047Y-141666666D01*
G04 #@! TO.C,C5*
X151857142Y-139166666D02*
X151904761Y-139214285D01*
X151952380Y-139357142D01*
X151952380Y-139452380D01*
X151904761Y-139595238D01*
X151809523Y-139690476D01*
X151714285Y-139738095D01*
X151523809Y-139785714D01*
X151380952Y-139785714D01*
X151190476Y-139738095D01*
X151095238Y-139690476D01*
X151000000Y-139595238D01*
X150952380Y-139452380D01*
X150952380Y-139357142D01*
X151000000Y-139214285D01*
X151047619Y-139166666D01*
X150952380Y-138261904D02*
X150952380Y-138738095D01*
X151428571Y-138785714D01*
X151380952Y-138738095D01*
X151333333Y-138642857D01*
X151333333Y-138404761D01*
X151380952Y-138309523D01*
X151428571Y-138261904D01*
X151523809Y-138214285D01*
X151761904Y-138214285D01*
X151857142Y-138261904D01*
X151904761Y-138309523D01*
X151952380Y-138404761D01*
X151952380Y-138642857D01*
X151904761Y-138738095D01*
X151857142Y-138785714D01*
G04 #@! TO.C,C6*
X125833333Y-102857142D02*
X125785714Y-102904761D01*
X125642857Y-102952380D01*
X125547619Y-102952380D01*
X125404761Y-102904761D01*
X125309523Y-102809523D01*
X125261904Y-102714285D01*
X125214285Y-102523809D01*
X125214285Y-102380952D01*
X125261904Y-102190476D01*
X125309523Y-102095238D01*
X125404761Y-102000000D01*
X125547619Y-101952380D01*
X125642857Y-101952380D01*
X125785714Y-102000000D01*
X125833333Y-102047619D01*
X126690476Y-101952380D02*
X126500000Y-101952380D01*
X126404761Y-102000000D01*
X126357142Y-102047619D01*
X126261904Y-102190476D01*
X126214285Y-102380952D01*
X126214285Y-102761904D01*
X126261904Y-102857142D01*
X126309523Y-102904761D01*
X126404761Y-102952380D01*
X126595238Y-102952380D01*
X126690476Y-102904761D01*
X126738095Y-102857142D01*
X126785714Y-102761904D01*
X126785714Y-102523809D01*
X126738095Y-102428571D01*
X126690476Y-102380952D01*
X126595238Y-102333333D01*
X126404761Y-102333333D01*
X126309523Y-102380952D01*
X126261904Y-102428571D01*
X126214285Y-102523809D01*
G04 #@! TO.C,C7*
X143333333Y-102857142D02*
X143285714Y-102904761D01*
X143142857Y-102952380D01*
X143047619Y-102952380D01*
X142904761Y-102904761D01*
X142809523Y-102809523D01*
X142761904Y-102714285D01*
X142714285Y-102523809D01*
X142714285Y-102380952D01*
X142761904Y-102190476D01*
X142809523Y-102095238D01*
X142904761Y-102000000D01*
X143047619Y-101952380D01*
X143142857Y-101952380D01*
X143285714Y-102000000D01*
X143333333Y-102047619D01*
X143666666Y-101952380D02*
X144333333Y-101952380D01*
X143904761Y-102952380D01*
G04 #@! TO.C,C8*
X160833333Y-102857142D02*
X160785714Y-102904761D01*
X160642857Y-102952380D01*
X160547619Y-102952380D01*
X160404761Y-102904761D01*
X160309523Y-102809523D01*
X160261904Y-102714285D01*
X160214285Y-102523809D01*
X160214285Y-102380952D01*
X160261904Y-102190476D01*
X160309523Y-102095238D01*
X160404761Y-102000000D01*
X160547619Y-101952380D01*
X160642857Y-101952380D01*
X160785714Y-102000000D01*
X160833333Y-102047619D01*
X161404761Y-102380952D02*
X161309523Y-102333333D01*
X161261904Y-102285714D01*
X161214285Y-102190476D01*
X161214285Y-102142857D01*
X161261904Y-102047619D01*
X161309523Y-102000000D01*
X161404761Y-101952380D01*
X161595238Y-101952380D01*
X161690476Y-102000000D01*
X161738095Y-102047619D01*
X161785714Y-102142857D01*
X161785714Y-102190476D01*
X161738095Y-102285714D01*
X161690476Y-102333333D01*
X161595238Y-102380952D01*
X161404761Y-102380952D01*
X161309523Y-102428571D01*
X161261904Y-102476190D01*
X161214285Y-102571428D01*
X161214285Y-102761904D01*
X161261904Y-102857142D01*
X161309523Y-102904761D01*
X161404761Y-102952380D01*
X161595238Y-102952380D01*
X161690476Y-102904761D01*
X161738095Y-102857142D01*
X161785714Y-102761904D01*
X161785714Y-102571428D01*
X161738095Y-102476190D01*
X161690476Y-102428571D01*
X161595238Y-102380952D01*
G04 #@! TO.C,C10*
X159357142Y-127037142D02*
X159309523Y-127084761D01*
X159166666Y-127132380D01*
X159071428Y-127132380D01*
X158928571Y-127084761D01*
X158833333Y-126989523D01*
X158785714Y-126894285D01*
X158738095Y-126703809D01*
X158738095Y-126560952D01*
X158785714Y-126370476D01*
X158833333Y-126275238D01*
X158928571Y-126180000D01*
X159071428Y-126132380D01*
X159166666Y-126132380D01*
X159309523Y-126180000D01*
X159357142Y-126227619D01*
X160309523Y-127132380D02*
X159738095Y-127132380D01*
X160023809Y-127132380D02*
X160023809Y-126132380D01*
X159928571Y-126275238D01*
X159833333Y-126370476D01*
X159738095Y-126418095D01*
X160928571Y-126132380D02*
X161023809Y-126132380D01*
X161119047Y-126180000D01*
X161166666Y-126227619D01*
X161214285Y-126322857D01*
X161261904Y-126513333D01*
X161261904Y-126751428D01*
X161214285Y-126941904D01*
X161166666Y-127037142D01*
X161119047Y-127084761D01*
X161023809Y-127132380D01*
X160928571Y-127132380D01*
X160833333Y-127084761D01*
X160785714Y-127037142D01*
X160738095Y-126941904D01*
X160690476Y-126751428D01*
X160690476Y-126513333D01*
X160738095Y-126322857D01*
X160785714Y-126227619D01*
X160833333Y-126180000D01*
X160928571Y-126132380D01*
G04 #@! TO.C,D1*
X101261904Y-110952380D02*
X101261904Y-109952380D01*
X101500000Y-109952380D01*
X101642857Y-110000000D01*
X101738095Y-110095238D01*
X101785714Y-110190476D01*
X101833333Y-110380952D01*
X101833333Y-110523809D01*
X101785714Y-110714285D01*
X101738095Y-110809523D01*
X101642857Y-110904761D01*
X101500000Y-110952380D01*
X101261904Y-110952380D01*
X102785714Y-110952380D02*
X102214285Y-110952380D01*
X102500000Y-110952380D02*
X102500000Y-109952380D01*
X102404761Y-110095238D01*
X102309523Y-110190476D01*
X102214285Y-110238095D01*
G04 #@! TO.C,D2*
X101261904Y-131952380D02*
X101261904Y-130952380D01*
X101500000Y-130952380D01*
X101642857Y-131000000D01*
X101738095Y-131095238D01*
X101785714Y-131190476D01*
X101833333Y-131380952D01*
X101833333Y-131523809D01*
X101785714Y-131714285D01*
X101738095Y-131809523D01*
X101642857Y-131904761D01*
X101500000Y-131952380D01*
X101261904Y-131952380D01*
X102214285Y-131047619D02*
X102261904Y-131000000D01*
X102357142Y-130952380D01*
X102595238Y-130952380D01*
X102690476Y-131000000D01*
X102738095Y-131047619D01*
X102785714Y-131142857D01*
X102785714Y-131238095D01*
X102738095Y-131380952D01*
X102166666Y-131952380D01*
X102785714Y-131952380D01*
G04 #@! TO.C,D3*
X108261904Y-110952380D02*
X108261904Y-109952380D01*
X108500000Y-109952380D01*
X108642857Y-110000000D01*
X108738095Y-110095238D01*
X108785714Y-110190476D01*
X108833333Y-110380952D01*
X108833333Y-110523809D01*
X108785714Y-110714285D01*
X108738095Y-110809523D01*
X108642857Y-110904761D01*
X108500000Y-110952380D01*
X108261904Y-110952380D01*
X109166666Y-109952380D02*
X109785714Y-109952380D01*
X109452380Y-110333333D01*
X109595238Y-110333333D01*
X109690476Y-110380952D01*
X109738095Y-110428571D01*
X109785714Y-110523809D01*
X109785714Y-110761904D01*
X109738095Y-110857142D01*
X109690476Y-110904761D01*
X109595238Y-110952380D01*
X109309523Y-110952380D01*
X109214285Y-110904761D01*
X109166666Y-110857142D01*
G04 #@! TO.C,D4*
X108761904Y-131952380D02*
X108761904Y-130952380D01*
X109000000Y-130952380D01*
X109142857Y-131000000D01*
X109238095Y-131095238D01*
X109285714Y-131190476D01*
X109333333Y-131380952D01*
X109333333Y-131523809D01*
X109285714Y-131714285D01*
X109238095Y-131809523D01*
X109142857Y-131904761D01*
X109000000Y-131952380D01*
X108761904Y-131952380D01*
X110190476Y-131285714D02*
X110190476Y-131952380D01*
X109952380Y-130904761D02*
X109714285Y-131619047D01*
X110333333Y-131619047D01*
G04 #@! TO.C,D5*
X169452380Y-124738095D02*
X168452380Y-124738095D01*
X168452380Y-124500000D01*
X168500000Y-124357142D01*
X168595238Y-124261904D01*
X168690476Y-124214285D01*
X168880952Y-124166666D01*
X169023809Y-124166666D01*
X169214285Y-124214285D01*
X169309523Y-124261904D01*
X169404761Y-124357142D01*
X169452380Y-124500000D01*
X169452380Y-124738095D01*
X168452380Y-123261904D02*
X168452380Y-123738095D01*
X168928571Y-123785714D01*
X168880952Y-123738095D01*
X168833333Y-123642857D01*
X168833333Y-123404761D01*
X168880952Y-123309523D01*
X168928571Y-123261904D01*
X169023809Y-123214285D01*
X169261904Y-123214285D01*
X169357142Y-123261904D01*
X169404761Y-123309523D01*
X169452380Y-123404761D01*
X169452380Y-123642857D01*
X169404761Y-123738095D01*
X169357142Y-123785714D01*
G04 #@! TO.C,D6*
X169202380Y-135738095D02*
X168202380Y-135738095D01*
X168202380Y-135500000D01*
X168250000Y-135357142D01*
X168345238Y-135261904D01*
X168440476Y-135214285D01*
X168630952Y-135166666D01*
X168773809Y-135166666D01*
X168964285Y-135214285D01*
X169059523Y-135261904D01*
X169154761Y-135357142D01*
X169202380Y-135500000D01*
X169202380Y-135738095D01*
X168202380Y-134309523D02*
X168202380Y-134500000D01*
X168250000Y-134595238D01*
X168297619Y-134642857D01*
X168440476Y-134738095D01*
X168630952Y-134785714D01*
X169011904Y-134785714D01*
X169107142Y-134738095D01*
X169154761Y-134690476D01*
X169202380Y-134595238D01*
X169202380Y-134404761D01*
X169154761Y-134309523D01*
X169107142Y-134261904D01*
X169011904Y-134214285D01*
X168773809Y-134214285D01*
X168678571Y-134261904D01*
X168630952Y-134309523D01*
X168583333Y-134404761D01*
X168583333Y-134595238D01*
X168630952Y-134690476D01*
X168678571Y-134738095D01*
X168773809Y-134785714D01*
G04 #@! TO.C,H1*
X187238095Y-148952380D02*
X187238095Y-147952380D01*
X187238095Y-148428571D02*
X187809523Y-148428571D01*
X187809523Y-148952380D02*
X187809523Y-147952380D01*
X188809523Y-148952380D02*
X188238095Y-148952380D01*
X188523809Y-148952380D02*
X188523809Y-147952380D01*
X188428571Y-148095238D01*
X188333333Y-148190476D01*
X188238095Y-148238095D01*
G04 #@! TO.C,H2*
X101238095Y-148952380D02*
X101238095Y-147952380D01*
X101238095Y-148428571D02*
X101809523Y-148428571D01*
X101809523Y-148952380D02*
X101809523Y-147952380D01*
X102238095Y-148047619D02*
X102285714Y-148000000D01*
X102380952Y-147952380D01*
X102619047Y-147952380D01*
X102714285Y-148000000D01*
X102761904Y-148047619D01*
X102809523Y-148142857D01*
X102809523Y-148238095D01*
X102761904Y-148380952D01*
X102190476Y-148952380D01*
X102809523Y-148952380D01*
G04 #@! TO.C,H3*
X101238095Y-101952380D02*
X101238095Y-100952380D01*
X101238095Y-101428571D02*
X101809523Y-101428571D01*
X101809523Y-101952380D02*
X101809523Y-100952380D01*
X102190476Y-100952380D02*
X102809523Y-100952380D01*
X102476190Y-101333333D01*
X102619047Y-101333333D01*
X102714285Y-101380952D01*
X102761904Y-101428571D01*
X102809523Y-101523809D01*
X102809523Y-101761904D01*
X102761904Y-101857142D01*
X102714285Y-101904761D01*
X102619047Y-101952380D01*
X102333333Y-101952380D01*
X102238095Y-101904761D01*
X102190476Y-101857142D01*
G04 #@! TO.C,H4*
X187238095Y-101952380D02*
X187238095Y-100952380D01*
X187238095Y-101428571D02*
X187809523Y-101428571D01*
X187809523Y-101952380D02*
X187809523Y-100952380D01*
X188714285Y-101285714D02*
X188714285Y-101952380D01*
X188476190Y-100904761D02*
X188238095Y-101619047D01*
X188857142Y-101619047D01*
G04 #@! TO.C,J1*
X101666666Y-120952380D02*
X101666666Y-121666666D01*
X101619047Y-121809523D01*
X101523809Y-121904761D01*
X101380952Y-121952380D01*
X101285714Y-121952380D01*
X102666666Y-121952380D02*
X102095238Y-121952380D01*
X102380952Y-121952380D02*
X102380952Y-120952380D01*
X102285714Y-121095238D01*
X102190476Y-121190476D01*
X102095238Y-121238095D01*
G04 #@! TO.C,J2*
X175666666Y-147952380D02*
X175666666Y-148666666D01*
X175619047Y-148809523D01*
X175523809Y-148904761D01*
X175380952Y-148952380D01*
X175285714Y-148952380D01*
X176095238Y-148047619D02*
X176142857Y-148000000D01*
X176238095Y-147952380D01*
X176476190Y-147952380D01*
X176571428Y-148000000D01*
X176619047Y-148047619D01*
X176666666Y-148142857D01*
X176666666Y-148238095D01*
X176619047Y-148380952D01*
X176047619Y-148952380D01*
X176666666Y-148952380D01*
G04 #@! TO.C,J3*
X158666666Y-147952380D02*
X158666666Y-148666666D01*
X158619047Y-148809523D01*
X158523809Y-148904761D01*
X158380952Y-148952380D01*
X158285714Y-148952380D01*
X159047619Y-147952380D02*
X159666666Y-147952380D01*
X159333333Y-148333333D01*
X159476190Y-148333333D01*
X159571428Y-148380952D01*
X159619047Y-148428571D01*
X159666666Y-148523809D01*
X159666666Y-148761904D01*
X159619047Y-148857142D01*
X159571428Y-148904761D01*
X159476190Y-148952380D01*
X159190476Y-148952380D01*
X159095238Y-148904761D01*
X159047619Y-148857142D01*
G04 #@! TO.C,Q1*
X178047619Y-137095238D02*
X178000000Y-137190476D01*
X177904761Y-137285714D01*
X177761904Y-137428571D01*
X177714285Y-137523809D01*
X177714285Y-137619047D01*
X177952380Y-137571428D02*
X177904761Y-137666666D01*
X177809523Y-137761904D01*
X177619047Y-137809523D01*
X177285714Y-137809523D01*
X177095238Y-137761904D01*
X177000000Y-137666666D01*
X176952380Y-137571428D01*
X176952380Y-137380952D01*
X177000000Y-137285714D01*
X177095238Y-137190476D01*
X177285714Y-137142857D01*
X177619047Y-137142857D01*
X177809523Y-137190476D01*
X177904761Y-137285714D01*
X177952380Y-137380952D01*
X177952380Y-137571428D01*
X177952380Y-136190476D02*
X177952380Y-136761904D01*
X177952380Y-136476190D02*
X176952380Y-136476190D01*
X177095238Y-136571428D01*
X177190476Y-136666666D01*
X177238095Y-136761904D01*
G04 #@! TO.C,R1*
X162952380Y-139666666D02*
X162476190Y-140000000D01*
X162952380Y-140238095D02*
X161952380Y-140238095D01*
X161952380Y-139857142D01*
X162000000Y-139761904D01*
X162047619Y-139714285D01*
X162142857Y-139666666D01*
X162285714Y-139666666D01*
X162380952Y-139714285D01*
X162428571Y-139761904D01*
X162476190Y-139857142D01*
X162476190Y-140238095D01*
X162952380Y-138714285D02*
X162952380Y-139285714D01*
X162952380Y-139000000D02*
X161952380Y-139000000D01*
X162095238Y-139095238D01*
X162190476Y-139190476D01*
X162238095Y-139285714D01*
G04 #@! TO.C,R2*
X162952380Y-135166666D02*
X162476190Y-135500000D01*
X162952380Y-135738095D02*
X161952380Y-135738095D01*
X161952380Y-135357142D01*
X162000000Y-135261904D01*
X162047619Y-135214285D01*
X162142857Y-135166666D01*
X162285714Y-135166666D01*
X162380952Y-135214285D01*
X162428571Y-135261904D01*
X162476190Y-135357142D01*
X162476190Y-135738095D01*
X162047619Y-134785714D02*
X162000000Y-134738095D01*
X161952380Y-134642857D01*
X161952380Y-134404761D01*
X162000000Y-134309523D01*
X162047619Y-134261904D01*
X162142857Y-134214285D01*
X162238095Y-134214285D01*
X162380952Y-134261904D01*
X162952380Y-134833333D01*
X162952380Y-134214285D01*
G04 #@! TO.C,R3*
X169202380Y-139666666D02*
X168726190Y-140000000D01*
X169202380Y-140238095D02*
X168202380Y-140238095D01*
X168202380Y-139857142D01*
X168250000Y-139761904D01*
X168297619Y-139714285D01*
X168392857Y-139666666D01*
X168535714Y-139666666D01*
X168630952Y-139714285D01*
X168678571Y-139761904D01*
X168726190Y-139857142D01*
X168726190Y-140238095D01*
X168202380Y-139333333D02*
X168202380Y-138714285D01*
X168583333Y-139047619D01*
X168583333Y-138904761D01*
X168630952Y-138809523D01*
X168678571Y-138761904D01*
X168773809Y-138714285D01*
X169011904Y-138714285D01*
X169107142Y-138761904D01*
X169154761Y-138809523D01*
X169202380Y-138904761D01*
X169202380Y-139190476D01*
X169154761Y-139285714D01*
X169107142Y-139333333D01*
G04 #@! TO.C,R4*
X179952380Y-131166666D02*
X179476190Y-131500000D01*
X179952380Y-131738095D02*
X178952380Y-131738095D01*
X178952380Y-131357142D01*
X179000000Y-131261904D01*
X179047619Y-131214285D01*
X179142857Y-131166666D01*
X179285714Y-131166666D01*
X179380952Y-131214285D01*
X179428571Y-131261904D01*
X179476190Y-131357142D01*
X179476190Y-131738095D01*
X179285714Y-130309523D02*
X179952380Y-130309523D01*
X178904761Y-130547619D02*
X179619047Y-130785714D01*
X179619047Y-130166666D01*
G04 #@! TO.C,R5*
X181833333Y-114452380D02*
X181500000Y-113976190D01*
X181261904Y-114452380D02*
X181261904Y-113452380D01*
X181642857Y-113452380D01*
X181738095Y-113500000D01*
X181785714Y-113547619D01*
X181833333Y-113642857D01*
X181833333Y-113785714D01*
X181785714Y-113880952D01*
X181738095Y-113928571D01*
X181642857Y-113976190D01*
X181261904Y-113976190D01*
X182738095Y-113452380D02*
X182261904Y-113452380D01*
X182214285Y-113928571D01*
X182261904Y-113880952D01*
X182357142Y-113833333D01*
X182595238Y-113833333D01*
X182690476Y-113880952D01*
X182738095Y-113928571D01*
X182785714Y-114023809D01*
X182785714Y-114261904D01*
X182738095Y-114357142D01*
X182690476Y-114404761D01*
X182595238Y-114452380D01*
X182357142Y-114452380D01*
X182261904Y-114404761D01*
X182214285Y-114357142D01*
G04 #@! TO.C,R6*
X159833333Y-123802380D02*
X159500000Y-123326190D01*
X159261904Y-123802380D02*
X159261904Y-122802380D01*
X159642857Y-122802380D01*
X159738095Y-122850000D01*
X159785714Y-122897619D01*
X159833333Y-122992857D01*
X159833333Y-123135714D01*
X159785714Y-123230952D01*
X159738095Y-123278571D01*
X159642857Y-123326190D01*
X159261904Y-123326190D01*
X160690476Y-122802380D02*
X160500000Y-122802380D01*
X160404761Y-122850000D01*
X160357142Y-122897619D01*
X160261904Y-123040476D01*
X160214285Y-123230952D01*
X160214285Y-123611904D01*
X160261904Y-123707142D01*
X160309523Y-123754761D01*
X160404761Y-123802380D01*
X160595238Y-123802380D01*
X160690476Y-123754761D01*
X160738095Y-123707142D01*
X160785714Y-123611904D01*
X160785714Y-123373809D01*
X160738095Y-123278571D01*
X160690476Y-123230952D01*
X160595238Y-123183333D01*
X160404761Y-123183333D01*
X160309523Y-123230952D01*
X160261904Y-123278571D01*
X160214285Y-123373809D01*
G04 #@! TO.C,TP1*
X183238095Y-109452380D02*
X183809523Y-109452380D01*
X183523809Y-110452380D02*
X183523809Y-109452380D01*
X184142857Y-110452380D02*
X184142857Y-109452380D01*
X184523809Y-109452380D01*
X184619047Y-109500000D01*
X184666666Y-109547619D01*
X184714285Y-109642857D01*
X184714285Y-109785714D01*
X184666666Y-109880952D01*
X184619047Y-109928571D01*
X184523809Y-109976190D01*
X184142857Y-109976190D01*
X185666666Y-110452380D02*
X185095238Y-110452380D01*
X185380952Y-110452380D02*
X185380952Y-109452380D01*
X185285714Y-109595238D01*
X185190476Y-109690476D01*
X185095238Y-109738095D01*
G04 #@! TO.C,TP2*
X163452380Y-128261904D02*
X163452380Y-127690476D01*
X164452380Y-127976190D02*
X163452380Y-127976190D01*
X164452380Y-127357142D02*
X163452380Y-127357142D01*
X163452380Y-126976190D01*
X163500000Y-126880952D01*
X163547619Y-126833333D01*
X163642857Y-126785714D01*
X163785714Y-126785714D01*
X163880952Y-126833333D01*
X163928571Y-126880952D01*
X163976190Y-126976190D01*
X163976190Y-127357142D01*
X163547619Y-126404761D02*
X163500000Y-126357142D01*
X163452380Y-126261904D01*
X163452380Y-126023809D01*
X163500000Y-125928571D01*
X163547619Y-125880952D01*
X163642857Y-125833333D01*
X163738095Y-125833333D01*
X163880952Y-125880952D01*
X164452380Y-126452380D01*
X164452380Y-125833333D01*
G04 #@! TO.C,TP3*
X165238095Y-147952380D02*
X165809523Y-147952380D01*
X165523809Y-148952380D02*
X165523809Y-147952380D01*
X166142857Y-148952380D02*
X166142857Y-147952380D01*
X166523809Y-147952380D01*
X166619047Y-148000000D01*
X166666666Y-148047619D01*
X166714285Y-148142857D01*
X166714285Y-148285714D01*
X166666666Y-148380952D01*
X166619047Y-148428571D01*
X166523809Y-148476190D01*
X166142857Y-148476190D01*
X167047619Y-147952380D02*
X167666666Y-147952380D01*
X167333333Y-148333333D01*
X167476190Y-148333333D01*
X167571428Y-148380952D01*
X167619047Y-148428571D01*
X167666666Y-148523809D01*
X167666666Y-148761904D01*
X167619047Y-148857142D01*
X167571428Y-148904761D01*
X167476190Y-148952380D01*
X167190476Y-148952380D01*
X167095238Y-148904761D01*
X167047619Y-148857142D01*
G04 #@! TO.C,U1*
X153952380Y-136761904D02*
X154761904Y-136761904D01*
X154857142Y-136714285D01*
X154904761Y-136666666D01*
X154952380Y-136571428D01*
X154952380Y-136380952D01*
X154904761Y-136285714D01*
X154857142Y-136238095D01*
X154761904Y-136190476D01*
X153952380Y-136190476D01*
X154952380Y-135190476D02*
X154952380Y-135761904D01*
X154952380Y-135476190D02*
X153952380Y-135476190D01*
X154095238Y-135571428D01*
X154190476Y-135666666D01*
X154238095Y-135761904D01*
G04 #@! TD*
M02*
